<?xml version="1.0" encoding="UTF-8"?>
<svg id="Layer_1" data-name="Layer 1" xmlns="http://www.w3.org/2000/svg" version="1.1" viewBox="0 0 500 80">
  <defs>
    <style>
      .cls-1 {
        fill: #ccc;
      }

      .cls-1, .cls-2 {
        stroke-width: 0px;
      }

      .cls-2 {
        fill: #fff;
      }
    </style>
  </defs>
  <g>
    <path class="cls-2" d="M9.1,41.73c2.57-.09,5.14,0,7.8.26-.04,1.22.04,2.44.35,3.75.17,1,.74,2.13,2.48,2.13,2.61,0,3.05-1.13,3.27-2.7v-.35c0-1.13.17-2.35.17-3.48v-5.01c0-1.26-.04-2.22-.09-3.35l-.09-3.79c-.04-1.09-.13-2.26-.13-3.35v-.39h-.39l-3,.13c-2.53.13-5.05.17-7.58.35-.17,0-.22-.04-.26-.26l-.35-2.92c0-2.26,1.26-1.65,3.05-1.74,1.39-.09,2.83-.09,4.22-.17l7.32-.35c.39,0,.74-.04,1.13-.04l2.31-.09c.09.61.22,1.39.22,2.26v.39c0,.91.09,1.83.09,2.74,0,.26.04.52.04.78v.78c0,.65.04,1.26.04,1.92,0,.26.04.52.04.78v.78c0,.91.04,1.79.04,2.7v1.48c0,.74.04,1.48.04,2.22v1.13c0,.57.04,1.09.04,1.65v.83c0,.26.04.48.04.74v1.04c0,1.13,0,2.31-.17,3.4l-.13.91c-.48,3.35-2.35,4.18-4.62,4.62l-.7.13c-1.48.26-3.35.61-4.96.61-1.44,0-2.92,0-4.27-.3-2.87-.65-4.14-1.44-5.05-3.22l-.3-.61c-.17-.35-.26-.65-.35-1.04l-.17-.78c-.17-.87-.22-1.74-.22-2.7,0-.61.13-1.26.13-1.87Z"/>
    <path class="cls-2" d="M38.59,43.6c0,.39-.09.65-.09,1-.22,1-1.79,1.57-3.53,1.7h-.35c-2.22,0-2.79-.57-2.79-1.83v-.26c0-3.05,2.05-3.14,3.35-3.14h1.22c2.4.35,2.18,1.35,2.18,2.53Z"/>
    <path class="cls-2" d="M41.37,47.82c.31-8.88.52-23.39.61-29.05,1.74,0,3.53-.22,5.18-.22h2.09c2.13,0,4.14.04,5.66.35l.65.13c3.79,1.04,4.4,4.4,4.4,6.88v.39c0,.44-.04,1-.13,2.13l-.09,1.31c-.13,1.31-.7,2.22-1.92,2.96,1.92.87,2.92,2.31,3.31,4.49l.09.57c.09.52.13,1.18.13,1.74v.91c0,.96-.04,1.79-.13,2.48l-.48,1.92c-.57,2.22-3.14,3-5.62,3.27l-1.35.09c-1.18,0-2.44.04-3.53.04-3.4,0-6.4-.13-8.88-.39ZM51,44.47h.39c2.48,0,2.87-.96,2.96-2.79,0-1-.04-1.96-.04-2.92-.26-2.7-.65-4.14-2.66-4.35-1.52,0-2.7.22-3.57.57l-.09,2.18v.78c-.09,2.96-.22,4.35-.13,6.27,1,.09,2.26.22,3.14.26ZM48.34,30.66l.17.13c.74.26,2.05.26,2.7.26h.3c1.52,0,1.74-.13,2.53-.91l.09-.44c.26-1.22.48-2.31.48-3.18v-.3c0-1.74-.44-2.87-1.52-3.4l-.52-.22c-.65-.17-1.39-.26-2.09-.26-.74,0-1.52.09-2.22.22-.04.35-.04.74-.04,1.13v.7c0,1.79.13,3.92.13,6.27Z"/>
    <path class="cls-2" d="M70.03,43.6c0,.39-.09.65-.09,1-.22,1-1.79,1.57-3.53,1.7h-.35c-2.22,0-2.79-.57-2.79-1.83v-.26c0-3.05,2.05-3.14,3.35-3.14h1.22c2.4.35,2.18,1.35,2.18,2.53Z"/>
    <path class="cls-2" d="M98.25,45.47c-.13-.91-.52-1.65-.52-2.79v-.7c0-.65-.09-1.31-.26-1.96h-.26c-.09,0-.17.04-.26.04h-.74c-.26,0-.48.04-.74.04l-2.31.04c-.83,0-1.7,0-2.53.09l-1,.09c-.87.09-.74.78-.78,1.52l-.13,1.57s.17,2.44-1.79,2.31l-1.26-.09-1.13-.13c-.22-.35-.31-.83-.31-1.22,0-.48.13-1.05.22-1.52l.31-1.48.35-2.31.09-.52c.09-.61.22-1.18.35-1.79l.09-.48.39-2.05.13-.78.17-.7.44-1.96.26-1.48.09-.74.13-.78.26-1.48.48-1.74.44-1.48.39-1.48c.09-.26.09-.48.17-.74l.22-.74c.13-.48.57-1.83.57-2.4,0-.44-.22-.52-.61-.52h-.61c-1.35,0-2.87.26-4.35.26-.7,0-1.35-.04-2.05-.04-.65,0-1.04.17-1.04-.7l.26-3.27c.04-.44.04-.83.48-.83.44.09.91.09,1.39.09,1.26,0,3.14-.17,4.66-.17h1.22c.26,0,.48.04.74.04h1.26c.78,0,1.52-.09,2.26-.17l2.26-.26c.7-.09,1.52-.17,2.26-.17h.78c.17.04.48.04.83.04.48,0,1.31-.04,2.18-.04.57,0,1.22-.04,1.87-.04.61,0,1.26-.04,1.87-.09l2.48-.13c0,1.18.35,4.88-1.35,5.27l-1.66.17c-.91.09-1.83.13-2.74.13-.65,0-1.7-.04-1.87.13,0,.09.04.17.04.26l.35,1.52.26,1.22.17.78.17.74.22,1.26.17,1.22.09,1.04c.09,1.09,0,2.87.22,4.27l.26,1.74.35,1.48.13.48.52,1.48c.09.26.13.52.22.74l.17.74c.17.74.35,1.52.48,2.26l.09.52c.04.13.09.31.09.44,0,.57-.13,1.09-.13,1.65,0,.48,0,1,.09,1.48l.22,1.44.09.52c.09.61.13.22-6.31.83ZM90.02,36.59c1.26,0,2.53-.09,3.79-.09h.44c.35,0,.7-.04,1.05-.04.57,0,1.13-.04,1.7-.04l-.09-.44-.39-1.7c-.04-.13,0-.26-.04-.39l-.09-.44-.31-1.39c-.04-.13,0-.3-.04-.44l-.26-1.22c-.04-.13,0-.3-.04-.44l-.13-.61-.22-1.04-.3-1.92c-.04-.35-.13-.7-.17-1.05l-.09-.83c-.09-.65-.22-1.39-.22-2.13,0-.83-.26-1.7-.26-2.53l-.09-.57c-.09-.48-.3-.91-.65-1.26l-.52,1.65-.13.44-.17.61-.09.39-.31,1-.26,1-.17.61-.13.39c0,.17-.13.48-.17.65l-.13.39c-.13.39-.48,1.57-.48,2.74l-.09.61-.44,2.53-.13.61-.22,1.05-.22,1.09-.26,1.26-.3,1.52h.65Z"/>
    <path class="cls-2" d="M125.86,23.78v1.96c0,.35.04.7.04,1.04,0,2.61.04,6.53.04,7.58v1.18c0,.52-.04.91-.04,1.26v.57c0,1.83,0-2.05-.26,3.35v.57c0,.39-.04.83-.04,1.35v3.35c0,.91-.09,2-.31,2.92h-2.26c-.87,0-2.57.31-3.09-.96l-.26-.57-.61-1.31-.78-1.7-.3-.61-.31-.65-.74-1.66c-.22-.48-.48-.96-.7-1.48l-.35-.78-.26-.52-.35-.83-.26-.57-.39-.83-1.04-2.4-.65-1.57-.13-.31v1.79c0,.35-.04.7-.04,1.05v6.27c0,1.09.04,2.13.04,3.22v4.09c0,.44,0,.91-.09,1.35-.04.52-.13,1-.26,1.44-.17.87-2.7.7-3.83.87-.22,0-.35,0-.52-.04l-.48-.13c-.13-.04-.22-.17-.35-.26v-.74c0-.74-.04-1.44-.04-2.18v-1.04c0-.26-.04-.48-.04-.74v-4.49c0-.26-.04-.52-.04-.78v-4.57c0-.57-.04-1.09-.04-1.65v-1.09c0-3-.22-6.05-.22-9.06,0-.35-.04-.7-.04-1,0-1.04-.09-2.09-.09-3.14v-1.22c.91-.09,1.87-.09,2.79-.09h2.83c.35,0,.65.39.91,1l.52,1.31.39,1c.31.78.57,1.61.96,2.44l.26.74.74,2.18.44,1.22.7,1.79.96,2.26.26.7.61,1.35s.09.09.09.13c.04.09.04.17.09.22v-1.44c0-.26-.04-.48-.04-.74v-1.18c0-.3-.04-.61-.04-.96,0-.17-.04-.35-.04-.57v-.87c0-.48-.04-.87-.04-1.35,0-.3-.04-.61-.04-.96v-1.09c0-.39-.04-.78-.04-1.22s-.04-.87-.04-1.35c0-1.48-.09-2.83-.09-4.49,0-.26.13-.39.3-.48l6.49.35c.13.57.09,1.96.17,3.75Z"/>
    <path class="cls-2" d="M139.88,13.51c1.13.17,2.18.35,3.14.61l1.05.26c.35.09.65.22.96.35l.91.39c.91.48,1.74,1.05,2.48,1.79l.65.65.39.48.35.52c.31.3.44.83.57,1.26.39,1.13.48,3.09.48,4.62v6.92c0,.48-.04,1-.04,1.48v.74c0,.57-.13,1.18-.13,1.74l-.13,1-.13.91c-.09.52-.22.91-.35,1.39l-.17.48-.13.26-.35.78-.26.52c-.96,1.87-3.14,3.35-5.57,3.96l-1.18.26c-.87.31-2.61.31-3.66.31h-1.09c-2.4,0-5.53-.17-8.58-.22v-1.7c0-.3-.04-.57-.04-.87v-1.87c0-.3-.04-.65-.04-.96v-1.65c0-.57-.04-1.13-.04-1.7v-2.83c0-.22-.04-.48-.04-.74v-1.44c0-.35-.04-.74-.04-1.09v-2.61c0-.35-.04-.74-.04-1.09v-.74c0-.74-.04-1.48-.04-2.22v-1.44c0-.35-.04-.74-.04-1.09,0-.61-.04-1.18-.04-1.79v-.7c-.57,0-1.09.04-1.65.09-.22,0-.44.04-.65.04-.04-.57-.04-2.31-.04-2.87,0-.7.04-1.31.04-1.92v-.57c.7,0,1.39-.09,2.09-.09.35,0,.65-.04,1-.04,1-.04,2.05-.04,3-.04,2.31,0,4.75.09,7.01.35.09,0,.22.04.39.09ZM136.44,39.59h1.18c.39,0,.74-.09,1.04-.13,1.92-.39,2.74-.57,3.18-1.79l.13-.35c.09-.17.13-.31.17-.48l.17-.57.26-1.26.13-.7c.04-.17.04-.31.04-.48l.17-1.83c0-.17.04-.39.04-.57,0-.39.09-.74.09-1.13,0-.78.09-1.61.09-2.4v-1.22c0-.44.04-.83.04-1.26s.04-.83.04-1.26c0-.74.09-1.74-.3-2.48v-.26c-.22-1.26-.74-2-1.57-2.53l-.48-.26c-.3-.17-.7-.22-1.05-.39h-.26c-.35,0-.7-.09-1.04-.09l-2.18-.09c-.48,0-.96,0-1.48.04v.57c0,.39-.04.74-.04,1.13v.57c0,1.57-.13,3.05-.13,4.66v.57c0,.35-.04.7-.04,1.05v.78c0,.17-.04.35-.04.52,0,1.87-.13,3.75-.13,5.62v1.22c0,1.57-.13,3.05-.13,4.53.78.09,1.52.22,2.09.26Z"/>
    <path class="cls-2" d="M179.16,17.08c-.7,0-.13-.04-2.18-.04h-2.18c-.83,0-1.7.04-2.53.04v6.75c0,.39.04.83.04,1.22v3.92c0,.26.04.48.04.74v1.92c0,.65.04,1.26.04,1.92,0,.39.04.74.04,1.13v.74c0,.39.04.74.04,1.09v.74c0,.35.04.74.04,1.09v.78c0,.39.04.74.04,1.13v1.18c0,1.05.04,2.05.04,3.05,0,.87-3.35.83-4.44.83-.52,0-2.4.7-2.4-1.65v-1.05c0-1.22.09-2.61.09-3.92v-.83c0-1.57.13-3.09.13-4.66v-.83c0-1.04.04-2.09.04-3.14v-9.28c0-.78.04-1.57.04-2.31v-.35c-.83,0-1.57-.09-2.35-.13l-1.74-.09c-.83-.04-1.65,0-2.74-.09-1.18,0-.87-.83-.87-1.39.13-1.83-.44-4.53,1.52-4.53h1.31c3.22,0,6.1.17,10.36.17h2.83c2.79,0,4.22-.09,6.45-.09v5.88c-.48.04-1.04.04-1.7.04Z"/>
    <path class="cls-2" d="M194.67,20.78l.13,1.79v.74c0,.22.04.44.04.7v6.84c0,.74-.04,1.39-.04,2.13,0,.57-.04,1.18-.04,1.74,0,.87-.09,1.7-.09,2.57v1.39c0,.48-.04,1-.04,1.48,0,.26-.04.52-.04.78s-.04.52-.04.78c0,.52-.04,1.04-.04,1.61v.87c0,.87-.04,1.74-.13,2.66,0,.65-.04,1.26-.04,1.92,0,.3-.04.61-.04.96,0,1.96-.44,1.79-1.57,1.79-.35-.04-4.09-.09-4.09-.52v-1.57c0-2.4.09-4.79.09-7.19v-.74c0-.35-.04-.7-.04-1.05v-.65c0-.48-.04-.87-.04-1.31-.09,0-.13-.04-.22-.04h-.3c-.96-.13-2.26-.22-3.18-.22h-.61c-.52,0-1.05-.04-1.48.17-.3.44-.26,1.52-.26,3.14,0,.44.04.87.04,1.35v1.7c0,.57.04,1.13.04,1.7v.65c0,.44-.17.87-.39,1.18l-4.49.13c-.52,0-1.31.22-1.31-.87v-.48s-.04-.09-.04-.26c0-.09,0-.26.04-.48,0-.44-.04-.91-.04-1.39,0-.22-.04-.48-.04-.74,0-3.18-.17-6.88-.17-11.5v-2.4c-.74.22-1.31.3-1.35.09l-.22-4.75c-.04-.52.04-1.13.17-1.61.35,0,.7-.04,1.04-.04,1.26,0,2.57-.17,3.83-.17h2.53c.87.44.74,3.66.74,5.66,0,.96.04,1.87.04,2.66v.52c0,.96.61.74,1.74.74h.57c.39,0,.78,0,1.22-.04.13,0,.26.04.39.04.26,0,.48-.04.7-.04.61-.04.52-1.35.52-2.13v-1.31c0-.44.04-.87.04-1.26,0-.57.04-1.05.04-1.57v-1.13l.04-4.22c.17-2.09,3.44-1.92,5.88-1.57.65,0,.48,0,.52.78Z"/>
    <path class="cls-2" d="M213.65,41.68c-.7.13-1.39.22-2.18.22h-.61c-.39,0-.74.04-1.13.04-.65,0-1.31.04-1.96.04h-2.13c-.26,0-.52-.04-.78-.04h-1.13c-.48,0-1,.04-1.48.09l-1.83.17c-.61.04-1.26.17-1.96.17-.39,0-.26-.48-.26-.74v-1.79c0-.26.04-.57.04-.87,0-.39.04-.74.04-1.13l.09-1.74c0-.3.04-.57.09-.87l.09-.57c.09-.48.13-1,.13-1.48v-.91c0-1.39-.09-2.79-.09-4.22v-.61c0-.22.04-.35.04-.57v-2.13c0-.39.04-.78.04-1.18,0-1.48.17-2.92.17-4.35v-1.31c0-.09,0-.17.04-.26-.17-.04-.3-.04-.48-.04h-.13c-.96,0-4.44.17-5.66.17-.83,0-.65-.52-.65-1.09v-2.31c0-2.13.35-1.52,1.52-1.65h1.7c.39,0,.74-.04,1.13-.04h2.09c.26,0,.57,0,.83.04l.87.09s.04.04.09.04c.87,0,3.05-.22,4.05-.22.26,0,.44.17.7.17.35,0,.65-.13,1-.13h.26c.22,0,.44.17.65.17h.31c.7,0,1.31-.09,1.92-.09.17,0,.35.04.52.04l.74.09c.17,0,.39.09.57.09h.61c.31,0,.65-.04.96-.04.57,0,1.09-.09,1.61-.04l.44.04v.7c0,1.31-.04,2.26-.13,3.35,0,.7-.35.87-1,.87-.52,0-1.18-.04-1.87-.04-.39,0-.78-.04-1.22-.04h-.61c-.22,0-.39-.04-.57-.04-.7,0-1.35-.04-2.05-.04-.39,0-.78-.04-1.18-.04h-.3v.3c0,.87-.17,1.83-.17,2.7,0,.3-.04.57-.04.87,0,.39-.04.78-.04,1.18,0,.96.04,2.05.04,2.96.3,0,.52.04.87.04h1.44c.48,0,.91.22,1.39.22h.87c.96,0,1.87-.13,2.83-.13.26,0,.52.04.78.04-.04.91-.04,2.05-.3,3.44-.13.22-.61.3-1.26.39-.52.04-1.18.09-1.79.09-.7,0-1.35,0-2,.04l-2.96.13h-.26v.3l-.04.3v.61c0,1.52-.17,2.96-.17,4.49,0,.39-.04.78-.04,1.18v.87c.35.09,1.22.13,2.26.13.22,0,.44-.04.7-.04h.52c.22,0,.44.04.65.04-.13-.04,1-.22,1.65-.22h1.57c.83,0,2.26.22,2.26.7,0,1.04-.22,1.96-.44,3.35-.09,0-.17.04-.26.04Z"/>
    <path class="cls-2" d="M234.3,11.72c.17,1.83.13,3.4.35,5.01.09.83.09,1.61.09,2.44s-.09,1.7-.09,2.53c0,1.35.09,2.83.17,4.18.22,3.27-.13,5.36-.13,8.36v1.22c0,.39-.04.78-.04,1.22v3.92c.17.09.31.17.48.22.65.22,1.31.13,1.96.04.83-.13,1.79-.26,2.66-.26,1.48-.04,3.05,0,4.4.04.65,0,1.35-.04,2.05-.13,0,.26.13,1.26.13,1.65,0,1.31.13,3.4-.74,3.57-.96,0-1.87-.09-2.96-.09-1.96,0-3.75.31-5.57.31h-.57c-.35,0-.7.04-1.09.04h-1.13c-.7.13-5.01.3-5.75.13.09-.57.17-1.13.17-1.74v-2c0-1.13-.04-2.4-.04-3.48v-9.36c-.04-.44-.09-.91-.09-1.39v-1.57c0-.57.04-1.09.04-1.65v-2.18c0-.35-.04-.74-.04-1.09v-.57c0-2.87-.26-5.71-.35-8.58,2.05-.26,4.05-.48,6.1-.78Z"/>
    <path class="cls-2" d="M265.7,19.95l.35.09c1.87.74,3.14,2.66,3.62,4.53l.17.7c.09.35.13.7.17,1.09l.09.78c.09.78.17,1.61.17,2.53v.48c0,.44.04.91.04,1.39v4.92c0,1.04-.09,2.09-.09,3.14v.39c0,1.26-.48,2.61-1,3.75-1.74,3.14-5.05,4.01-9.28,4.01-1.09,0-2.09,0-3.01-.09-4.62-.35-7.1-2.18-8.1-5.36l-.22-.7c-.26-.78-.52-2.22-.52-3.31,0-.39-.09-.83-.09-1.22v-2.66c0-1.48.13-3.05.13-4.49,0-.48.04-1.05.09-1.48l.09-1c0-.22.09-.44.09-.65l.09-.91c.04-.39.17-.78.35-1.31l.44-1.22c.26-1.04,1.09-2,2.61-2.61l1.22-.48c1.57-.44,3.22-.7,5.05-.87.96-.09,1.96-.13,3.05-.13h.39c1.48,0,2.74.35,4.09.7ZM255.68,34.5v.65c0,.31.04.61.04.91s.04.61.04.91l.09,1.22c.04.52.13,1.09.13,1.61v.44c0,.13.04.26.04.39.3,1.79.91,2.22,3.62,2.22.57,0,1.09,0,1.65-.13,2.83-.48,2.96-3.27,2.96-6.14v-1.35c0-.39-.04-.83-.04-1.22v-.61c0-.87-.13-1.74-.13-2.61v-.44c0-.31-.04-.61-.04-.91v-.48c0-.17-.04-.31-.04-.48v-.74c0-2.7-1.22-3.35-3.7-3.35h-.26c-.26,0-.56-.04-.83-.04-3.27,0-3.57,1.65-3.57,3.83v.61c0,.65-.04,1.39-.04,2.18v1.31c0,.74.09,1.48.09,2.22Z"/>
    <path class="cls-2" d="M304.32,20.73c0,.83-.13,1.74-.35,2.66l-.13.57-.48,1.79-.57,2.05-.48,1.83-.39,1.66-.48,1.87-.39,1.7-.7,2.79-.44,1.83c-.04.26-.09.52-.18.78l-.3,1.13c-.09.26-.09.57-.17.83l-.52,2-.13.57-.22.91-.17.61c-.35,0-.83.04-1.22.04h-1.18l-3.31.61c0-.09-.04-.17-.04-.26l-.17-.83-.3-1.7-.39-2-.26-1.44-.3-1.74-.35-2-.35-1.92-.44-2.53-.3-1.61-.26-1.44-.26-1.22s-.04-.09-.04-.13l-.09.17-.26.61-.39.87c-.65,1.48-1.35,2.96-1.83,4.53l-.65,1.65-.83,2.13-.96,2.4-.26.7-.65,1.65c-.17.44-.44.96-.57,1.44-1.79.48-3.92.74-6.31.83-.22-.3-.39-1.13-.52-1.79l-.13-.74-.35-1.65c-.04-.3-.17-.61-.22-.91l-.74-3.7-.44-2.13-.3-1.74-.17-.91-.13-.78c-.09-.65-.22-1.22-.35-1.92l-.22-1.18-.13-.57-.44-2.4-.39-2.05c-.17-.83-.26-1.61-.39-2.31l-.18-.87-.17-1.18c0-.22-.04-.44-.04-.65v-.44c-1.13,0-2.22.09-3.35.09h-.74c-.61,0-1.18.04-1.79.04-.3,0-1,.13-1-.22l.09-3-.26-2.53-.09-.74h1c.44,0,.87.04,1.31.04h.74c.87,0,1.7.04,2.57.04h1c.87,0,1.74,0,2.57.04l3.57.13c0,.17.04.39.09.61l.17,1.35.52,3.66c.09.61.26,1.26.35,1.92l.13.87.22,1.18.3,1.79.35,2.05.09.61c.04.39.18.74.22,1.13l.13.83.3,1.83.26,1.44.3,1.74.3,1.7.26,1.48c0,.09.04.17.04.26.04-.04.13-.13.44-.91l.22-.52c.48-1.18,1-2.26,1.53-3.66l.35-.96.83-2.31c.44-1.18.83-2.4,1.22-3.61l1.44-4.22.09-.3c.79-.22,2.09-.44,3.01-.57l1.35-.22s.04.04.09.09c.09.13.22.35.3.65l.26.78c.13.39.22.87.3,1.39l.13.78c0,.09.04.13.04.22l.39,1.7c.09.3.13.61.17.91l.13.74.39,1.7.35,1.83c.17.61.26,1.26.39,1.92l.26,1.13.3,1.48c0,.09.04.17.04.26,0-.13.09-.26.09-.44l.39-1.74.35-1.7c.3-1.48.52-2.05.78-2.92l.7-2.31c.04-.3.17-.65.22-.96l.13-.7c.22-1.26.39-2.22,1.09-3.09,2,.04,3.96,0,5.97.74Z"/>
    <path class="cls-2" d="M331.24,17.08c-.7,0-.13-.04-2.18-.04h-2.18c-.83,0-1.7.04-2.53.04v6.75c0,.39.04.83.04,1.22v3.92c0,.26.04.48.04.74v1.92c0,.65.04,1.26.04,1.92,0,.39.04.74.04,1.13v.74c0,.39.04.74.04,1.09v.74c0,.35.04.74.04,1.09v.78c0,.39.04.74.04,1.13v1.18c0,1.05.04,2.05.04,3.05,0,.87-3.35.83-4.44.83-.52,0-2.39.7-2.39-1.65v-1.05c0-1.22.09-2.61.09-3.92v-.83c0-1.57.13-3.09.13-4.66v-.83c0-1.04.04-2.09.04-3.14v-9.28c0-.78.04-1.57.04-2.31v-.35c-.83,0-1.57-.09-2.35-.13l-1.74-.09c-.83-.04-1.66,0-2.74-.09-1.18,0-.87-.83-.87-1.39.13-1.83-.44-4.53,1.52-4.53h1.31c3.22,0,6.1.17,10.37.17h2.83c2.79,0,4.22-.09,6.45-.09v5.88c-.48.04-1.04.04-1.7.04Z"/>
    <path class="cls-2" d="M329.45,47.47l-1.13.13c0-.3-.04-.57-.04-.83,0-1.74.22-2.57.22-4.18v-.44c0-1.09.13-2.13.13-3.22v-1.7c0-.7-.09-1.35-.09-2.05v-.7c0-.35-.04-.65-.04-1s0-.65.04-1l.13-1.39c.22-1.18.13-2.87.13-4.22v-.35c0-.44,0-.87-.04-1.31l-.09-1c-.04-.74-.26-1.52-.35-2.31-.04-.35-.04-.65.04-1l.04-.7c.57-.04,2.88-.17,3.48-.17s1.74.13,1.96.22c.09.3.18.48.18.61,0,.57.09,1.13.09,1.7v.35c0,.35.04.7.04,1.04,0,.44.04.91.04,1.35,0,.22-.04.44-.04.65l-.09,2.05v.35c0,1.48-.22,2.96-.22,4.44,0,.48-.09.91-.09,1.39,0,.7-.04,1.35-.04,2.05,0,.65.04,1.35.04,2,0,.22.04.48.04.7,0,1.74.13,4.01.26,6.05l.13,2c-.83,0-4.57.31-4.75.48Z"/>
    <path class="cls-2" d="M348.31,13.51c1.13.17,2.18.35,3.13.61l1.04.26c.35.09.65.22.96.35l.91.39c.91.48,1.74,1.05,2.48,1.79l.65.65.39.48.35.52c.3.3.44.83.57,1.26.39,1.13.48,3.09.48,4.62v6.92c0,.48-.04,1-.04,1.48v.74c0,.57-.13,1.18-.13,1.74l-.13,1-.13.91c-.09.52-.22.91-.35,1.39l-.17.48-.13.26-.35.78-.26.52c-.96,1.87-3.13,3.35-5.57,3.96l-1.18.26c-.87.31-2.61.31-3.66.31h-1.09c-2.4,0-5.53-.17-8.58-.22v-1.7c0-.3-.04-.57-.04-.87v-1.87c0-.3-.04-.65-.04-.96v-1.65c0-.57-.04-1.13-.04-1.7v-2.83c0-.22-.04-.48-.04-.74v-1.44c0-.35-.04-.74-.04-1.09v-2.61c0-.35-.04-.74-.04-1.09v-.74c0-.74-.04-1.48-.04-2.22v-1.44c0-.35-.04-.74-.04-1.09,0-.61-.04-1.18-.04-1.79v-.7c-.56,0-1.09.04-1.65.09-.22,0-.44.04-.65.04-.04-.57-.04-2.31-.04-2.87,0-.7.04-1.31.04-1.92v-.57c.7,0,1.39-.09,2.09-.09.35,0,.65-.04,1-.04,1-.04,2.05-.04,3-.04,2.31,0,4.75.09,7.01.35.09,0,.22.04.39.09ZM344.87,39.59h1.18c.39,0,.74-.09,1.04-.13,1.92-.39,2.74-.57,3.18-1.79l.13-.35c.09-.17.13-.31.17-.48l.17-.57.26-1.26.13-.7c.04-.17.04-.31.04-.48l.17-1.83c0-.17.04-.39.04-.57,0-.39.09-.74.09-1.13,0-.78.09-1.61.09-2.4v-1.22c0-.44.04-.83.04-1.26s.04-.83.04-1.26c0-.74.09-1.74-.31-2.48v-.26c-.22-1.26-.74-2-1.57-2.53l-.48-.26c-.3-.17-.7-.22-1.04-.39h-.26c-.35,0-.7-.09-1.05-.09l-2.18-.09c-.48,0-.96,0-1.48.04v.57c0,.39-.04.74-.04,1.13v.57c0,1.57-.13,3.05-.13,4.66v.57c0,.35-.04.7-.04,1.05v.78c0,.17-.04.35-.04.52,0,1.87-.13,3.75-.13,5.62v1.22c0,1.57-.13,3.05-.13,4.53.78.09,1.52.22,2.09.26Z"/>
    <path class="cls-2" d="M380.88,21.56c-.04,1.13.13,5.14-.61,5.14h-1.7c-1.31,0-2.57.04-3.88.04h-3.44v1.83l-.09,1.87-.13,2.35c0,.13-.04.22-.04.35h.44c.74,0,1.44.04,2.18.04.44,0,.87.04,1.31.04s.83.04,1.26.09l1.7.09c.87.04,1.7.13,2.57.13,0,.57,1.13,3.75-2.39,3.75h-1.48c-.78,0-1.61-.04-2.18-.09-.44.04-.83.04-1.18.04-.74,0-1.39.13-1.96.13-.39,0-.83.04-1.26.04l-.13,2.31c0,.3-.04.61-.04.91s-.04.61-.04.91-.04.65-.04.96c0,.65-.09,1.26-.09,1.92,0,.3-.04.61-.04.91,0,.44-.04.87-.04,1.26,0,.52-.04.91-.04,1.35,1.26.13,2.18.17,3.7.17h14.37c-.09,1.31-.22,2.83-.39,4.62-1.31,0-3,.09-4.79.09h-.87c-1.66,0-3.53.17-5.44.17h-1.13c-2.35,0-4.83-.26-7.66-.26h-.39c-1.13,0-2.35.09-3.66.09l-.26-2.13.09-.65.17-1.48.09-1.26c.04-.78.04-1.52.13-2.31,0-.31.04-.65.04-.96.04-.65.09-1.26.09-1.92,0-.48.04-.96.04-1.44v-.91c0-1,.04-1.96.04-2.92v-1.83c0-1.48.13-2.79.13-4.09v-.83c0-1,.17-1.92.17-2.79,0-.09.04-.13.04-.22h-.39l-1.66.09c-.26,0-.56.04-.83.04,0-.78-.09-1.35-.09-2.22,0-1,.09-2.26.09-3.79,0-.3-.04-.7-.04-1h2.79c1.44,0,3.09.04,4.71.04h1.44c1.09,0,2.44-.04,3.57-.04h.39c3.22,0,5.75.13,6.93.48,0,.3-.04.57-.04.87Z"/>
    <path class="cls-2" d="M398.39,25.44c-.35,0-.7.04-1,.04s-.65.04-1-.04l-.13-4.66c.7-.04,1.35-.13,2-.22l.7-.09h.78c.3,0,.35.04,1.09.04h3.62c.22,0,.44-.04.65-.04h.92c.78,0,1.52.13,2.31.13h.65c1,0,2.61-.17,4.44-.17h.79c.3,0,.61.04.83.09,0,.22,0,.44-.04.74-.09,1.44-.04,3.31-.17,4.44-1.18-.13-2.48-.13-3.66-.13h-4.22c-.3,0-.61-.04-.91-.04-.22,0-.44-.04-.61-.04h-.26s-.04.17-.09.26v.3c0,1.74.35,3.44.35,5.18v.31c0,.44.04.87.04,1.31v.35h1.44c.39-.04.78,0,1.13,0h1.18c.79,0,1.48.04,2.27.04h.3c.52,0,.57.22.57.7-.13,1.22.04,2.35-.13,3.57-.65,0-1.48.17-2.18.17h-.35c-.35,0-.65-.04-.96-.04-.74,0-1.52.09-2.26.09h-.3c-.22,0-.48-.04-.7-.04-.7.61-.65,2.44-.65,3.83,0,2.83-.04,5.44.13,7.97l.17,2.83c0,.26.04.52.04.78l-.91.09c-.52.04-1.18.22-1.79.22h-1.57c-1.04,0-1.66.13-1.66-.87v-.91c0-.44.04-.87.04-1.31,0-1.09-.04-2.22-.04-3.31v-3.09c0-.48.04-.91.04-1.39v-2.44c0-.7-.04-1.31-.09-2,0-.44-.04-.91-.04-1.39,0-.74-.04-1.44-.04-2.18v-.96c0-1.22-.22-2.48-.22-3.7,0-.61.09-1.22.09-1.83.04-.87-.3-1.74-.18-2.53-.13,0-.26-.04-.39-.04Z"/>
    <path class="cls-2" d="M437.8,12.55c0,1.87.22,4.09.22,6.14,0,.61.04,1.22.04,1.83,0,.39.04.74.04,1.13v.74c0,.26.04.52.04.78,0,.74.04,1.48.04,2.26v2.31c0,.39.04.74.04,1.13v2.92c0,.22.04.48.04.7v4.14c0,.57,0,1.13-.04,1.65l-.09,1.83c-.04.74-.22,1.57-.39,2.13l-.26.78c-1.31,3.96-5.4,4.35-9.01,4.35h-.96c-.83,0-1.65-.09-2.48-.17l-1.04-.09c-.48-.04-.91-.09-1.31-.22l-.91-.26c-2.83-1.05-3.22-3.79-3.22-7.06v-2.66c0-.26-.04-.57-.04-.87v-1.22c0-1.13-.09-2.22-.09-3.7,0-.39-.04-.74-.04-1.18,0-1.65-.13-3.05-.13-4.92v-1.83c0-.22-.04-.44-.04-.65v-.65c0-.44,0-1.87.04-2.31l7.75.44-.13,4.35c-.04.74-.09,1.57-.09,2.31,0,.35-.04.74-.04,1.09,0,1.22-.04,2.44-.04,3.61v6.62c0,5.1,1.65,4.7,3.74,4.7.3,0,.57,0,.83-.04l.7-.09c1.13-.13,1.79-.96,2.13-1.87l.09-.22.17-.83.13-.61c.09-.35.04-.7.04-1.04v-.91c0-.44-.04-.87-.04-1.31v-1c0-.22-.04-.44-.04-.65l-.13-2.87c-.04-1-.09-2-.09-3.05v-1.13c0-.52-.04-1.05-.04-1.57v-.83c0-.65-.04-1.35-.04-2,0-.39-.04-.78-.04-1.18,0-.52-.04-1-.04-1.52v-1.09c0-.35-.04-.74-.04-1.04v-.91c0-1.96-.39-4.66-.22-4.18,0,.09,5.01-.3,5.01-.22Z"/>
    <path class="cls-2" d="M460.06,23.78v1.96c0,.35.04.7.04,1.04,0,2.61.04,6.53.04,7.58v1.18c0,.52-.04.91-.04,1.26v.57c0,1.83,0-2.05-.26,3.35v.57c0,.39-.04.83-.04,1.35v3.35c0,.91-.09,2-.3,2.92h-2.27c-.87,0-2.57.31-3.09-.96l-.26-.57-.61-1.31-.78-1.7-.3-.61-.3-.65-.74-1.66c-.22-.48-.48-.96-.7-1.48l-.35-.78-.26-.52-.35-.83-.26-.57-.39-.83-1.04-2.4-.65-1.57-.13-.31v1.79c0,.35-.04.7-.04,1.05v6.27c0,1.09.04,2.13.04,3.22v4.09c0,.44,0,.91-.09,1.35-.04.52-.13,1-.26,1.44-.17.87-2.7.7-3.83.87-.22,0-.35,0-.52-.04l-.48-.13c-.13-.04-.22-.17-.35-.26v-.74c0-.74-.04-1.44-.04-2.18v-1.04c0-.26-.04-.48-.04-.74v-4.49c0-.26-.04-.52-.04-.78v-4.57c0-.57-.04-1.09-.04-1.65v-1.09c0-3-.22-6.05-.22-9.06,0-.35-.04-.7-.04-1,0-1.04-.09-2.09-.09-3.14v-1.22c.92-.09,1.87-.09,2.79-.09h2.83c.35,0,.65.39.91,1l.52,1.31.39,1c.3.78.57,1.61.96,2.44l.26.74.74,2.18.44,1.22.7,1.79.96,2.26.26.7.61,1.35s.09.09.09.13c.04.09.04.17.09.22v-1.44c0-.26-.04-.48-.04-.74v-1.18c0-.3-.04-.61-.04-.96,0-.17-.04-.35-.04-.57v-.87c0-.48-.04-.87-.04-1.35,0-.3-.04-.61-.04-.96v-1.09c0-.39-.04-.78-.04-1.22s-.04-.87-.04-1.35c0-1.48-.09-2.83-.09-4.49,0-.26.13-.39.3-.48l6.49.35c.13.57.09,1.96.18,3.75Z"/>
    <path class="cls-2" d="M485.75,11.89l-1.31,2.87-.48,1.04-1.44,2.66c-1.09,1.92-2.7,5.01-5.05,7.01l-1.48,1.22c-.3.48-1.53.17-1.87,1.26,2.74,1.83,5.36,6.97,6.79,11.8l.57,1.74c.44,1.61.91,3.22,1.18,4.79-.22.04-.44.04-.74.04l-5.44.04c-.09-.39-.13-.87-.26-1.48l-.3-1.48-.22-1.09-.3-1.13c-.26-.96-.52-2-.92-3-.52-1.35-1.18-2.74-2-3.88l-2.74-3.4h-.13v8.1s-.04,1.61-.04,3.09c-.04.83.26,1.7.17,2.66-.04.39-.09.78-.3,1.18-.52.17-3.01.39-4.14.39-.44,0-1.66-.13-1.66-.87-.04-.83-.17-2.09-.17-3.44,0-1.44-.13-2.92-.13-4.44,0-.39-.04-.78-.04-1.18,0-.78-.04-1.57-.04-2.4v-2.48c0-.39-.04-.83-.04-1.22v-.61c0-2.7-.13-6.88-.17-9.84,0-.3-.04-.61-.04-.87s-.04-.57-.04-.83c-.61-.3-4.09-.17-5.97-.22-.57,0-.96-.04-1.09-.13l.13-5.71h.31c.52,0,2.61-.13,4.62-.13,2.44-.04,5.23,0,7.19.26.39.48.61,1.18.7,2.05l.13,2.35c0,.22.04.39.04.61,0,.39.04.78.04,1.18s.04.74.04,1.13c0,1.26.13,2.44.13,3.61l.09,1.52c.87.26,1.74-.35,2.74-1.35l.78-.87c6.23-7.27,4.7-10.71,8.75-10.71h1.48c.87,0,1.83.04,2.7.13Z"/>
  </g>
  <g>
    <path class="cls-1" d="M11.42,62.4v7.76h2.66v1.28h-4.03v-9.05h1.37Z"/>
    <path class="cls-1" d="M14.93,63.37c0-.23.08-.43.25-.6s.37-.25.6-.25.44.08.61.25c.17.16.25.37.25.6s-.08.44-.25.61c-.16.17-.37.25-.6.25s-.44-.08-.61-.25-.25-.37-.25-.62ZM16.44,65.74v5.71h-1.32v-5.71h1.32Z"/>
    <path class="cls-1" d="M18.82,65.74l1.48,3.21,1.47-3.21h1.48l-2.96,6.1-2.94-6.1h1.48Z"/>
    <path class="cls-1" d="M29.13,68.91h-4.09c.04.47.19.84.46,1.12.27.27.62.41,1.04.41.33,0,.6-.08.81-.23.21-.16.45-.45.72-.87l1.11.62c-.17.29-.35.54-.54.75s-.4.38-.62.52-.46.23-.71.3-.53.09-.83.09c-.85,0-1.54-.27-2.05-.82-.52-.55-.77-1.28-.77-2.19s.25-1.63.75-2.19c.5-.55,1.17-.83,2-.83s1.5.27,1.99.8c.48.53.73,1.27.73,2.21v.31ZM27.78,67.83c-.18-.7-.63-1.05-1.33-1.05-.16,0-.31.02-.45.07s-.27.12-.38.21-.21.2-.3.33-.14.28-.19.44h2.65Z"/>
    <path class="cls-1" d="M34.28,65.74h1.32v.53c.25-.27.47-.45.65-.54.19-.1.43-.15.72-.15.64,0,1.15.28,1.53.84.41-.56.97-.84,1.68-.84,1.29,0,1.93.78,1.93,2.34v3.53h-1.32v-3.17c0-.55-.07-.93-.2-1.16-.14-.23-.36-.35-.67-.35-.36,0-.63.14-.79.41s-.25.71-.25,1.32v2.95h-1.32v-3.15c0-1.02-.29-1.52-.88-1.52-.37,0-.64.14-.81.42s-.25.71-.25,1.31v2.95h-1.32v-5.71Z"/>
    <path class="cls-1" d="M45.09,65.74v3.28c0,.95.37,1.42,1.12,1.42s1.12-.47,1.12-1.42v-3.28h1.32v3.3c0,.46-.06.85-.17,1.18-.11.3-.3.56-.57.8-.45.39-1.01.58-1.7.58s-1.25-.19-1.69-.58c-.27-.24-.47-.51-.58-.8-.11-.27-.16-.66-.16-1.18v-3.3h1.32Z"/>
    <path class="cls-1" d="M53.63,66.72l-1.09.58c-.17-.35-.38-.53-.64-.53-.12,0-.22.04-.31.12s-.13.18-.13.31c0,.22.25.44.76.65.7.3,1.17.58,1.41.83s.36.6.36,1.03c0,.55-.2,1.01-.61,1.38-.39.35-.87.53-1.43.53-.96,0-1.63-.47-2.03-1.4l1.12-.52c.16.27.28.45.36.52.16.15.35.22.57.22.45,0,.67-.2.67-.61,0-.23-.17-.45-.52-.66-.13-.07-.27-.13-.4-.19s-.27-.13-.4-.19c-.38-.19-.65-.38-.81-.56-.2-.24-.3-.54-.3-.92,0-.5.17-.91.51-1.23.35-.32.77-.49,1.27-.49.73,0,1.27.38,1.63,1.13Z"/>
    <path class="cls-1" d="M54.98,63.37c0-.23.08-.43.25-.6s.37-.25.6-.25.44.08.61.25c.17.16.25.37.25.6s-.08.44-.25.61c-.16.17-.37.25-.6.25s-.44-.08-.61-.25-.25-.37-.25-.62ZM56.5,65.74v5.71h-1.32v-5.71h1.32Z"/>
    <path class="cls-1" d="M62.61,65.99v1.75c-.3-.37-.57-.62-.81-.76-.23-.14-.51-.21-.83-.21-.5,0-.91.17-1.24.52s-.49.78-.49,1.31.16.97.47,1.32c.32.34.73.52,1.22.52.32,0,.6-.07.84-.21.23-.13.51-.39.83-.77v1.74c-.54.28-1.07.42-1.61.42-.88,0-1.62-.29-2.21-.86-.59-.57-.89-1.29-.89-2.14s.3-1.57.9-2.16,1.34-.88,2.21-.88c.56,0,1.09.13,1.59.4Z"/>
    <path class="cls-1" d="M68.96,66.97v4.48h-1.32v-4.48h-.47v-1.23h.47v-2.2c0-.72.12-1.23.38-1.52.34-.41.84-.62,1.5-.62.23,0,.53.07.88.21v1.35l-.13-.07c-.29-.14-.52-.22-.7-.22-.23,0-.39.08-.47.25-.08.16-.12.48-.12.95v1.88h1.44v1.23h-1.44Z"/>
    <path class="cls-1" d="M71.15,65.74h1.32v.51c.24-.25.46-.43.64-.52.19-.1.42-.15.68-.15.35,0,.71.11,1.09.34l-.6,1.21c-.25-.18-.49-.27-.73-.27-.72,0-1.08.54-1.08,1.63v2.96h-1.32v-5.71Z"/>
    <path class="cls-1" d="M75.27,68.56c0-.82.29-1.53.88-2.1s1.31-.87,2.16-.87,1.57.29,2.17.87c.59.58.88,1.3.88,2.14s-.29,1.57-.88,2.15c-.59.57-1.32.86-2.19.86s-1.57-.29-2.15-.88c-.58-.58-.87-1.3-.87-2.18ZM76.61,68.58c0,.57.15,1.02.46,1.35.31.34.72.5,1.24.5s.93-.17,1.24-.5.46-.78.46-1.33-.15-1-.46-1.33c-.31-.34-.72-.5-1.24-.5s-.91.17-1.22.5-.47.77-.47,1.3Z"/>
    <path class="cls-1" d="M82.75,65.74h1.32v.53c.25-.27.47-.45.65-.54.19-.1.43-.15.72-.15.64,0,1.15.28,1.53.84.41-.56.97-.84,1.68-.84,1.29,0,1.93.78,1.93,2.34v3.53h-1.32v-3.17c0-.55-.07-.93-.2-1.16-.14-.23-.36-.35-.67-.35-.36,0-.63.14-.79.41s-.25.71-.25,1.32v2.95h-1.32v-3.15c0-1.02-.29-1.52-.88-1.52-.37,0-.64.14-.81.42s-.25.71-.25,1.31v2.95h-1.32v-5.71Z"/>
    <path class="cls-1" d="M101.31,63.75l-1.11.66c-.21-.36-.4-.59-.59-.7-.2-.12-.45-.19-.76-.19-.38,0-.69.11-.94.32-.25.21-.38.48-.38.8,0,.44.33.8.98,1.07l.9.37c.73.3,1.27.66,1.61,1.09s.51.95.51,1.57c0,.83-.28,1.52-.83,2.06-.56.55-1.25.82-2.08.82-.79,0-1.43-.23-1.95-.7-.5-.46-.82-1.12-.94-1.96l1.38-.3c.06.53.17.9.33,1.1.28.39.69.59,1.23.59.43,0,.78-.14,1.06-.43s.42-.65.42-1.08c0-.18-.02-.34-.07-.48s-.12-.28-.23-.4-.24-.24-.4-.35-.36-.21-.59-.31l-.87-.36c-1.24-.52-1.86-1.29-1.86-2.3,0-.68.26-1.25.78-1.71.52-.46,1.17-.69,1.94-.69,1.04,0,1.86.51,2.44,1.52Z"/>
    <path class="cls-1" d="M104.5,66.97v4.48h-1.32v-4.48h-.56v-1.23h.56v-2.09h1.32v2.09h1.03v1.23h-1.03Z"/>
    <path class="cls-1" d="M106.24,68.56c0-.82.29-1.53.88-2.1s1.31-.87,2.16-.87,1.57.29,2.17.87c.59.58.88,1.3.88,2.14s-.29,1.57-.88,2.15c-.59.57-1.32.86-2.19.86s-1.57-.29-2.15-.88c-.58-.58-.87-1.3-.87-2.18ZM107.59,68.58c0,.57.15,1.02.46,1.35.31.34.72.5,1.24.5s.93-.17,1.24-.5.46-.78.46-1.33-.15-1-.46-1.33c-.31-.34-.72-.5-1.24-.5s-.91.17-1.22.5-.47.77-.47,1.3Z"/>
    <path class="cls-1" d="M113.72,65.74h1.32v.53c.46-.46.98-.69,1.56-.69.66,0,1.18.21,1.55.63.32.36.48.94.48,1.74v3.5h-1.32v-3.19c0-.56-.08-.95-.23-1.17-.15-.22-.43-.33-.83-.33-.44,0-.75.14-.93.43-.18.29-.27.78-.27,1.49v2.75h-1.32v-5.71Z"/>
    <path class="cls-1" d="M120.1,63.37c0-.23.08-.43.25-.6s.37-.25.6-.25.44.08.61.25c.17.16.25.37.25.6s-.08.44-.25.61c-.16.17-.37.25-.6.25s-.44-.08-.61-.25-.25-.37-.25-.62ZM121.62,65.74v5.71h-1.32v-5.71h1.32Z"/>
    <path class="cls-1" d="M123.29,65.74h1.32v.53c.46-.46.98-.69,1.56-.69.66,0,1.18.21,1.55.63.32.36.48.94.48,1.74v3.5h-1.32v-3.19c0-.56-.08-.95-.23-1.17-.15-.22-.43-.33-.83-.33-.44,0-.75.14-.93.43-.18.29-.27.78-.27,1.49v2.75h-1.32v-5.71Z"/>
    <path class="cls-1" d="M135.39,71.32c0,.27,0,.51-.03.71s-.04.39-.07.54c-.09.43-.28.8-.55,1.11-.52.59-1.22.89-2.13.89-.76,0-1.39-.21-1.88-.62-.51-.42-.8-1.01-.88-1.75h1.32c.05.28.13.5.25.65.27.36.67.53,1.2.53.96,0,1.45-.59,1.45-1.78v-.8c-.52.54-1.13.8-1.81.8-.78,0-1.41-.28-1.91-.84-.5-.57-.75-1.28-.75-2.14s.23-1.54.7-2.12c.5-.62,1.16-.93,1.98-.93.72,0,1.32.27,1.79.8v-.64h1.32v5.57ZM134.12,68.61c0-.55-.15-1-.45-1.33-.3-.34-.69-.51-1.15-.51-.5,0-.89.19-1.18.56-.26.33-.39.76-.39,1.29s.13.95.39,1.28c.29.36.68.54,1.18.54s.9-.18,1.2-.55c.27-.33.4-.76.4-1.28Z"/>
    <path class="cls-1" d="M138.41,66.97v4.48h-1.32v-4.48h-.56v-1.23h.56v-2.09h1.32v2.09h1.03v1.23h-1.03Z"/>
    <path class="cls-1" d="M140.15,68.56c0-.82.29-1.53.88-2.1s1.31-.87,2.16-.87,1.57.29,2.17.87c.59.58.88,1.3.88,2.14s-.29,1.57-.88,2.15c-.59.57-1.32.86-2.19.86s-1.57-.29-2.15-.88c-.58-.58-.87-1.3-.87-2.18ZM141.49,68.58c0,.57.15,1.02.46,1.35.31.34.72.5,1.24.5s.93-.17,1.24-.5.46-.78.46-1.33-.15-1-.46-1.33c-.31-.34-.72-.5-1.24-.5s-.91.17-1.22.5-.47.77-.47,1.3Z"/>
    <path class="cls-1" d="M147.63,65.74h1.32v.53c.46-.46.98-.69,1.56-.69.66,0,1.18.21,1.55.63.32.36.48.94.48,1.74v3.5h-1.32v-3.19c0-.56-.08-.95-.23-1.17-.15-.22-.43-.33-.83-.33-.44,0-.75.14-.93.43-.18.29-.27.78-.27,1.49v2.75h-1.32v-5.71Z"/>
    <path class="cls-1" d="M162.12,65.74h1.32v5.71h-1.32v-.6c-.54.51-1.13.76-1.75.76-.79,0-1.44-.29-1.96-.86-.51-.58-.77-1.31-.77-2.18s.26-1.57.77-2.14,1.15-.86,1.92-.86c.66,0,1.26.27,1.79.82v-.66ZM158.99,68.58c0,.55.15.99.44,1.34.3.35.68.52,1.14.52.49,0,.88-.17,1.18-.5.3-.35.45-.79.45-1.32s-.15-.98-.45-1.32c-.3-.34-.69-.51-1.17-.51-.45,0-.83.17-1.14.52-.3.35-.45.78-.45,1.29Z"/>
    <path class="cls-1" d="M165.11,65.74h1.32v.53c.46-.46.98-.69,1.56-.69.66,0,1.18.21,1.55.63.32.36.48.94.48,1.74v3.5h-1.32v-3.19c0-.56-.08-.95-.23-1.17-.15-.22-.43-.33-.83-.33-.44,0-.75.14-.93.43-.18.29-.27.78-.27,1.49v2.75h-1.32v-5.71Z"/>
    <path class="cls-1" d="M175.9,61.56h1.32v9.9h-1.32v-.6c-.52.51-1.11.76-1.76.76-.78,0-1.43-.29-1.95-.86-.51-.58-.77-1.31-.77-2.18s.26-1.56.77-2.13c.51-.57,1.15-.86,1.92-.86.67,0,1.27.27,1.79.82v-4.85ZM172.77,68.58c0,.55.15.99.44,1.34.3.35.68.52,1.14.52.49,0,.88-.17,1.18-.5.3-.35.45-.79.45-1.32s-.15-.98-.45-1.32c-.3-.34-.69-.51-1.17-.51-.45,0-.83.17-1.14.52-.3.35-.45.78-.45,1.29Z"/>
    <path class="cls-1" d="M182.84,71.45v-9.05h1.9c.91,0,1.63.09,2.16.27.57.18,1.08.47,1.54.9.93.85,1.4,1.97,1.4,3.36s-.49,2.52-1.46,3.38c-.49.43-1,.73-1.54.9-.5.17-1.21.25-2.13.25h-1.88ZM184.2,70.17h.62c.61,0,1.12-.06,1.53-.19.41-.14.77-.35,1.1-.65.67-.61,1.01-1.41,1.01-2.4s-.33-1.8-1-2.41c-.6-.55-1.48-.83-2.64-.83h-.62v6.48Z"/>
    <path class="cls-1" d="M196.5,68.91h-4.09c.04.47.19.84.46,1.12.27.27.62.41,1.04.41.33,0,.6-.08.81-.23.21-.16.45-.45.72-.87l1.11.62c-.17.29-.35.54-.54.75s-.4.38-.62.52-.46.23-.71.3-.53.09-.83.09c-.85,0-1.54-.27-2.05-.82-.52-.55-.77-1.28-.77-2.19s.25-1.63.75-2.19c.5-.55,1.17-.83,2-.83s1.5.27,1.99.8c.48.53.73,1.27.73,2.21v.31ZM195.14,67.83c-.18-.7-.63-1.05-1.33-1.05-.16,0-.31.02-.45.07s-.27.12-.38.21-.21.2-.3.33-.14.28-.19.44h2.65Z"/>
    <path class="cls-1" d="M203.14,68.91h-4.09c.04.47.19.84.46,1.12.27.27.62.41,1.04.41.33,0,.6-.08.81-.23.21-.16.45-.45.72-.87l1.11.62c-.17.29-.35.54-.54.75s-.4.38-.62.52-.46.23-.71.3-.53.09-.83.09c-.85,0-1.54-.27-2.05-.82-.52-.55-.77-1.28-.77-2.19s.25-1.63.75-2.19c.5-.55,1.17-.83,2-.83s1.5.27,1.99.8c.48.53.73,1.27.73,2.21v.31ZM201.78,67.83c-.18-.7-.63-1.05-1.33-1.05-.16,0-.31.02-.45.07s-.27.12-.38.21-.21.2-.3.33-.14.28-.19.44h2.65Z"/>
    <path class="cls-1" d="M204.58,65.74h1.32v.51c.24-.25.46-.43.64-.52.19-.1.42-.15.68-.15.35,0,.71.11,1.09.34l-.6,1.21c-.25-.18-.49-.27-.73-.27-.72,0-1.08.54-1.08,1.63v2.96h-1.32v-5.71Z"/>
    <path class="cls-1" d="M214.39,62.4v9.05h-1.37v-9.05h1.37Z"/>
    <path class="cls-1" d="M219.62,66.72l-1.09.58c-.17-.35-.38-.53-.64-.53-.12,0-.22.04-.31.12s-.13.18-.13.31c0,.22.25.44.76.65.7.3,1.17.58,1.41.83s.36.6.36,1.03c0,.55-.2,1.01-.61,1.38-.39.35-.87.53-1.43.53-.96,0-1.63-.47-2.03-1.4l1.12-.52c.16.27.28.45.36.52.16.15.35.22.57.22.45,0,.67-.2.67-.61,0-.23-.17-.45-.52-.66-.13-.07-.27-.13-.4-.19s-.27-.13-.4-.19c-.38-.19-.65-.38-.81-.56-.2-.24-.3-.54-.3-.92,0-.5.17-.91.51-1.23.35-.32.77-.49,1.27-.49.73,0,1.27.38,1.63,1.13Z"/>
    <path class="cls-1" d="M222.49,61.56v9.9h-1.32v-9.9h1.32Z"/>
    <path class="cls-1" d="M229.36,68.91h-4.09c.04.47.19.84.46,1.12.27.27.62.41,1.04.41.33,0,.6-.08.81-.23.21-.16.45-.45.72-.87l1.11.62c-.17.29-.35.54-.54.75s-.4.38-.62.52-.46.23-.71.3-.53.09-.83.09c-.85,0-1.54-.27-2.05-.82-.52-.55-.77-1.28-.77-2.19s.25-1.63.75-2.19c.5-.55,1.17-.83,2-.83s1.5.27,1.99.8c.48.53.73,1.27.73,2.21v.31ZM228.01,67.83c-.18-.7-.63-1.05-1.33-1.05-.16,0-.31.02-.45.07s-.27.12-.38.21-.21.2-.3.33-.14.28-.19.44h2.65Z"/>
    <path class="cls-1" d="M231.62,69.76l1.17.46-1.67,3.35-.89-.37,1.39-3.43Z"/>
    <path class="cls-1" d="M238.15,71.45l1.9-9.73,3.11,7.03,3.22-7.03,1.71,9.73h-1.4l-.87-5.46-2.68,5.88-2.6-5.88-.97,5.47h-1.41Z"/>
    <path class="cls-1" d="M253.95,65.74h1.32v5.71h-1.32v-.6c-.54.51-1.13.76-1.75.76-.79,0-1.44-.29-1.96-.86-.51-.58-.77-1.31-.77-2.18s.26-1.57.77-2.14,1.15-.86,1.92-.86c.66,0,1.26.27,1.79.82v-.66ZM250.82,68.58c0,.55.15.99.44,1.34.3.35.68.52,1.14.52.49,0,.88-.17,1.18-.5.3-.35.45-.79.45-1.32s-.15-.98-.45-1.32c-.3-.34-.69-.51-1.17-.51-.45,0-.83.17-1.14.52-.3.35-.45.78-.45,1.29Z"/>
    <path class="cls-1" d="M256.74,63.37c0-.23.08-.43.25-.6s.37-.25.6-.25.44.08.61.25c.17.16.25.37.25.6s-.08.44-.25.61c-.16.17-.37.25-.6.25s-.44-.08-.61-.25-.25-.37-.25-.62ZM258.26,65.74v5.71h-1.32v-5.71h1.32Z"/>
    <path class="cls-1" d="M259.93,65.74h1.32v.53c.46-.46.98-.69,1.56-.69.66,0,1.18.21,1.55.63.32.36.48.94.48,1.74v3.5h-1.32v-3.19c0-.56-.08-.95-.23-1.17-.15-.22-.43-.33-.83-.33-.44,0-.75.14-.93.43-.18.29-.27.78-.27,1.49v2.75h-1.32v-5.71Z"/>
    <path class="cls-1" d="M271.71,68.91h-4.09c.04.47.19.84.46,1.12.27.27.62.41,1.04.41.33,0,.6-.08.81-.23.21-.16.45-.45.72-.87l1.11.62c-.17.29-.35.54-.54.75s-.4.38-.62.52-.46.23-.71.3-.53.09-.83.09c-.85,0-1.54-.27-2.05-.82-.52-.55-.77-1.28-.77-2.19s.25-1.63.75-2.19c.5-.55,1.17-.83,2-.83s1.5.27,1.99.8c.48.53.73,1.27.73,2.21v.31ZM270.35,67.83c-.18-.7-.63-1.05-1.33-1.05-.16,0-.31.02-.45.07s-.27.12-.38.21-.21.2-.3.33-.14.28-.19.44h2.65Z"/>
  </g>
</svg>