<?xml version="1.0" encoding="UTF-8"?>
<svg id="Layer_1" data-name="Layer 1" xmlns="http://www.w3.org/2000/svg" version="1.1" viewBox="0 0 140.1 139.1">
  <defs>
    <style>
      .cls-1 {
        fill: #fff;
        stroke-width: 0px;
      }
    </style>
  </defs>
  <path class="cls-1" d="M16.2,36.3c4.9,2.2,109.6-11,117.6-13.8,0,0-12.7,55.6-9.7,77.6,0,0-107.2,11.6-111.4,17.2,0,0,6.4-77,3.5-81ZM11.1,119.5c4.4-5.8,114.7-18.8,114.7-18.8-3.5-3.8,9.1-79.6,9.1-79.6-4.6,3.4-118.6,16.1-121.4,11.9,3.6,9.6-2.3,86.5-2.3,86.5Z"/>
  <path class="cls-1" d="M29.3,110.4c4.8-4.3,10.2-22.9,11.3-28.8,14.2.1,41.7-4.8,51.4-7.9,0,0,2.7,3.9,6.9,5.5,0,0,2.6,23.1,8.6,24,0,0-69.3,8.5-73,11,0,0,.4-1.1-5.2-3.8ZM35.4,112.7c5.2-2.9,69.2-10.3,69.2-10.3-2.1-1.3-7.6-22.7-7.6-22.7-3.3-1.9-5.5-4.7-5.5-4.7-3.5,2.6-43.3,7.2-49.9,7.8-.4,3.3-6.6,23.2-10.5,27.3,6.6,2.6,4.3,2.6,4.3,2.6Z"/>
  <path class="cls-1" d="M35.5,112.8c2.4-4.1,9-23.5,9.6-27.4,0,0,42.6-3.7,52.8-6.1l.5.6s-37.5,5.6-52.5,6.4c0,0-6.7,21.6-9.6,26.6l-.9-.2Z"/>
  <path class="cls-1" d="M45.9,103.2c2.1-1.9,7-1.4,2.5,2.4-4.3,3.7-4.3-.8-2.5-2.4ZM49,106.4c5.8-4.6-.9-5.9-3.3-4.1-2.6,2-1.7,8.1,3.3,4.1Z"/>
  <path class="cls-1" d="M55.7,91.2c1.5-2.1,4.2-.7,2.4,1.3-1.5,1.2-3.3,0-2.4-1.3ZM58.9,93c2.6-2.8-2-4.6-3.6-2.7-2,2.3,1.4,5.1,3.6,2.7Z"/>
  <path class="cls-1" d="M88.8,88.4c1.6-1,5.8-.7,2.4,1.4-3.4,2.2-3.8-.6-2.4-1.4ZM91.9,90.5c4.5-3.6-1.2-4-3.3-2.7-2.1,1.3-1.2,6.3,3.3,2.7Z"/>
  <path class="cls-1" d="M94.4,98.3c2.1-1.5,5.8.1,2,2.6-3.1,2-4.1-1.1-2-2.6ZM97.6,100.9c3.7-3.4-1.7-5-4-3-3.2,2.7.3,6.5,4,3Z"/>
  <path class="cls-1" d="M38.7,49.3c21.7-.2,72.2-8.7,72.2-8.7,1.6,1.9-5.8,29-5.8,29-8.7-2.9-50-1-65.6,3,2.5-6-.8-23.4-.8-23.4ZM41.6,70.9c22.2-3.4,55.5-4.9,61.9-3.3,0,0,7.1-20.3,6.2-25.7,0,0-56.5,9.3-69.6,8.3,0,0,3.2,13.1,1.5,20.8Z"/>
  <path class="cls-1" d="M49,57.2c5.2-5.2,12.3-.3,5.3,4.9-7,5.2-12.7,2.7-5.3-4.9ZM54.7,63.4c9.9-7.3-1-12.9-7.2-6.8-5,5-3.4,14.6,7.2,6.8Z"/>
  <path class="cls-1" d="M91,55.6c5.4-5.5,14-3.8,8,4.5-6,8.3-13.8,1.4-8-4.5ZM98,63.2c11-9.6-.6-15.8-7.7-9.1-5.6,5.3.4,15.5,7.7,9.1Z"/>
  <path class="cls-1" d="M40.9,82.7c1.8.7,3.8,2.5,4.3,3.6l.7-.4s-2.9-2.4-3.8-3.4l-1.2.2Z"/>
  <path class="cls-1" d="M12,118.4c-2.8-2.7-4-2.7-7.6-2.5,0,0,7.4-73.7-.8-85.4,0,0,105.3-4.4,122.7-12.5,0,0,2.6,3.3,8.1,3.8l-2.4.9s-1.8-1.5-5.7-3.4c0,0-45,11.4-120.8,12.1,4.4,6.9,2.6,64.7,0,83.4,0,0,3.3-.5,6.6,2l-.2,1.7Z"/>
  <path class="cls-1" d="M5.8,30.8c2.5,1.5,5.6,2.8,10,3.1,0,0-.9,2.3-.9,2.4s-7.5-4.5-9.6-4.5l.6-1Z"/>
  <path class="cls-1" d="M56.7,49.1c4.7,3.7,11.2,11.9,4,20.1l2.7-.4s7-8.3-4.8-20.2l-1.9.5Z"/>
  <path class="cls-1" d="M74.2,68.2c-3.2-6.3-.7-15.6,6.8-22.2l1.6-.5s-13.1,13.2-6.7,22.2l-1.8.5Z"/>
  <path class="cls-1" d="M79,67.9c-4.1-5.5.4-14.2,8.2-23l2.1-.4s-15.4,14.9-8.9,23l-1.4.4Z"/>
  <path class="cls-1" d="M98.9,52c.6,6.3-1.4,9.2-7.8,11.7,0,0,.7.4,1.1.5,5.7-1.9,9.1-7.3,7.5-11.8l-.7-.4Z"/>
</svg>