<?xml version="1.0" encoding="UTF-8"?>
<svg id="Layer_1" data-name="Layer 1" xmlns="http://www.w3.org/2000/svg" version="1.1" viewBox="0 0 250 250">
  <defs>
    <style>
      .cls-1 {
        fill: #4692cf;
        stroke-width: 0px;
      }
    </style>
  </defs>
  <path class="cls-1" d="M84.19,37.93c-1.25.17-2.95-.61-2.86-2.35.09-1.65.82-2.92,2.01-4,.39-.35.46-.71.47-1.2,0-.44.1-1.01.39-1.3,2.11-2.13,4.61-3.41,7.78-3.34,1.24.03,2.09.53,2.69,1.47.32.5.68.64,1.25.66,1.16.05,2.26.33,3.05,1.23.97,1.09.44,2.47-1.03,2.74-.21.04-.42.07-.73.11.52.49,1.35.67.88,1.53.14-.03.19-.02.22-.05,2.6-1.97,5.35-3.78,7.64-6.1.22-.23.42-.5.57-.78.31-.6.57-1.22.86-1.83.21-.43.5-.69,1.07-.52.13.04.35-.19.53-.31.23-.16.46-.33.69-.5.13.24.27.47.44.77.14-.13.31-.3.5-.46.18-.14.41-.41.55-.37.64.17,1.03-.25,1.46-.52,1.27-.8,2.56-1.57,3.76-2.46,1.36-1.01,2.68-2.09,3.93-3.23.63-.57.88-1.35.65-2.26-.12-.46,0-1,.11-1.48.29-1.12,1.31-1.61,2.41-1.13.55.24,1.07.6,1.5,1,1.39,1.33,2.27,2.99,2.78,4.77.22.75.13,1.62,0,2.41-.17,1-1.05,1.42-2.02,1.03-.52-.21-.95-.59-1.46-.82-.38-.17-.87-.38-1.22-.29-.87.23-1.7.62-2.59.97.21.59.36,1.1.57,1.57.36.81.19,1.52-.37,2.16-.32.36-.67.72-1.08.98-1.17.73-2.37,1.41-3.58,2.09-.69.39-1.4.74-1.99,1.05-.14,1.6.43,2.89,1.26,4.18.09-.2.15-.31.26-.54.18.28.31.46.42.65.4.72.79,1.44,1.2,2.16.58,1.02,1.43,1.86,1.85,3.02.7,1.95,1.66,3.81,2.53,5.7.49,1.07.45,2.02-.46,2.88-.3.28-.5.67-.79.97-1.66,1.73-3.16,3.68-5.97,3.92.17.2.29.34.4.47,1.34,1.62,2.76,3.18,4.02,4.86,1.68,2.25,3.01,4.69,3.83,7.36.37,1.2.28,1.28-.95,1.52-.06.01-.12.06-.27.14.1.53.16,1.09.31,1.63.36,1.29.78,2.56,1.13,3.85.14.52.16,1.08.23,1.61.1.74.15,1.49.29,2.23.31,1.63.76,3.24,1,4.88.76,5.18,1,10.39.89,15.61-.02,1.03-.22,2.09-.54,3.08-1.14,3.51-2.99,6.68-5.25,9.62-.94,1.23-1.86,2.47-2.88,3.64-1.31,1.49-2.73,2.89-4.06,4.37-.76.84-1.22,1.83-1.13,3.02.57.3,1.09.79,1.86.39.12-.06.35.07.53.11.54.12,1.07.3,1.61.34.51.04,1.04-.14,1.55-.09.27.03.59.3.74.54.09.14-.03.5-.17.66-.65.77-1.46,1.26-2.55,1.26-1.74,0-3.52.27-5.22.03-.99-.14-2-.32-3.19-.46.53.33.95.54,1.31.82.59.45,1.18.91,1.69,1.43.7.72.26,1.97-.72,2.26-1.21.35-2.42.49-3.7.29-2.38-.38-4.47-1.32-6.23-2.89-.44-.39-.77-.89-1.21-1.41-.38.7-.84.45-1.25.15-.51-.37-1-.77-1.44-1.2-.13-.13-.14-.46-.07-.65.49-1.25.97-2.51,1.56-3.72.82-1.69,1.71-3.34,2.61-4.99.97-1.77,1.98-3.52,2.96-5.29.85-1.55,1.64-3.13,2.52-4.66.46-.81.94-1.66,1.62-2.29.55-.51.86-.97.79-1.69-.1-1.15.2-2.15,1.06-3,.18-.17.2-.59.14-.86-.37-1.8-.74-3.6-1.18-5.39-.36-1.43-.78-2.84-1.27-4.23-.38-1.07-.92-2.09-1.4-3.12-1.08-2.33-1.67-4.78-1.92-7.32-.12-1.23-.39-2.45-.61-3.75-.59.18-1.08.32-1.59.48-.05-.94.02-1.87-.2-2.74-.18-.71-.08-1.29.18-1.9.07-.17.13-.34.22-.5.16-.31.1-.54-.22-.74-1.08-.65-2.19-1.27-3.22-1.99-.65-.45-1.31-.98-1.77-1.61-.69-.97-1.21-2.06-1.81-3.09-.46-.79-.98-1.49-1.8-2.03-1.54-1-2.67-2.37-3.35-4.05-.52-1.29-1.01-2.59-1.51-3.89-.39-1.02-.84-2.03-1.12-3.08-.39-1.48.31-3,1.56-3.65.28-.14.58-.24.76-.31-1.15-1.41-2.29-2.79-3.51-4.29.03,0-.08.03-.2.04ZM105.35,34.8c-.42.26-.83.52-1.27.75-2.09,1.08-3.25.79-4.76-1.22-.42.25-.89.47-1.27.79-.14.12-.18.52-.07.69,1.19,1.96.69,3.46-1.5,4.37.33.88.5.83,1.47.96,1.21.16,2.31-.16,3.47-.28.28-.03.61.07.86.2,1.01.54,2.01,1.11,3.09,1.72.59-3.04,1.16-6,1.76-9.11-.68.43-1.23.78-1.78,1.12ZM119.45,24.77c.6-.52.75-1.06.37-1.74-.18-.32-.31-.66-.51-1.07-.31.13-.62.22-.89.38-1.39.81-2.78,1.63-4.16,2.47-.14.08-.23.26-.3.41-.13.31-.29.62-.31.94-.05.63-.01,1.26-.01,2.07,2.15-1.16,4.15-2.03,5.82-3.46ZM104.73,33.93c.53-.27.96-.73,1.46-1.06.49-.33.35-.62.01-.93-.85-.77-1.73-.84-2.7-.22-.73.46-1.44.94-2.18,1.38-.38.22-.75.39-.56.93.19.55.54.89,1.24,1.08.91-.39,1.85-.73,2.73-1.19Z"/>
  <path class="cls-1" d="M41.82,94.85c4.5-4.51,8.78-8.8,13.06-13.09.12.1.25.19.37.29-.08.19-.12.43-.26.57-3.8,4.03-7.63,8.03-11.4,12.09-.4.43-.48,1.17-.62,1.79-.85,3.72,2.44,6.06,3.36,9.2.45,1.54,1.23,3,1.73,4.53.77,2.33,2.03,3.16,4.54,3.18,4.87.04,9.73.23,14.6.31,1.74.03,2.56.85,2.65,2.47.05.82.24,1.49,1.37,1.42.22-.01.65.48.68.78.15,1.45.48,2.97.21,4.37-.32,1.66-1.15,3.24-1.84,4.82-.75,1.73-2.29,2.43-4.05,2.99-1.28.41-1.29,1.96-.11,2.65,4.02,2.34,7.16,5.56,9.75,9.28.66.95,1.01.83,1.71.12.74-.75,1.64-1.36,2.4-2.1.28-.28.48-.76.48-1.15.03-4.29.03-8.58.01-12.87,0-.38-.15-.78-.28-1.15-.3-.85-.67-1.57.13-2.49.46-.53.43-1.53.44-2.32.03-5.6,0-11.2.02-16.8,0-1.65-.03-3.5-1.23-4.57-1.11-1-2.87-1.64-4.42-1.82-3.37-.39-6.79-.37-10.19-.54-.36-.02-.71-.12-1.27-.57.65-.34,1.27-.87,1.96-.99,3.39-.57,6.81-1.03,10.22-1.54,1.34-.2,2.69-.41,4.01-.7,1.14-.25,1.3-1.25.48-2.1-.69-.72-1.15-1.41.04-2.29.81-.6,1.52-1.38,1.47-2.68-.13-3.58-.05-7.16-.04-10.74,0-.5.08-1.01.12-1.51l.48.02c.03.51.09,1.03.1,1.54,0,3.68-.01,7.37.02,11.05,0,.66-.38,1.62.93,1.68.09,0,.26.39.24.58-.14,1.04-.19,2.12-.53,3.1-.42,1.19.28,1.29,1.12,1.41,4.76.7,9.52,1.39,14.28,2.11.53.08,1.04.29,1.56.44,0,.17,0,.34,0,.51-1.65.29-3.3.67-4.96.84-1.66.17-3.35.19-5.02.19-2.41,0-4.16.75-5.69,2.8-1.12,1.49-1.22,2.83-1.18,4.41.11,5.3.22,10.59.32,15.89.01.76-.12,1.55,1.08,1.64.17.01.5.75.4,1.02-2.09,5.18-1.31,10.59-1.47,15.93-.03.97.14,1.55,1.26,1.87,2.45.7,3.99,2.33,5.03,4.62,3.42,7.52,7.05,14.95,10.41,22.5.8,1.79.79,3.9,1.29,5.83.18.71.82,1.3,1.18,1.98.74,1.43,1.59,2.84,2.02,4.36.13.45-.89,1.4-1.58,1.82-.82.5-1.52,0-1.77-.88-.52-1.81-1.49-3.57-.69-5.56.13-.31-.05-.79-.2-1.15-.48-1.2-1.28-2.35-1.48-3.59-.67-4.19-3.28-7.57-4.86-11.38-.11-.25-.78-.48-1.13-.42-2.01.32-4.02.68-6,1.15-.36.08-.85.7-.84,1.07.08,4.99.23,9.98.4,14.98.02.46.37.89.51,1.35.21.7.88,1.41-.17,2.09-.24.16-.3.9-.14,1.25.73,1.62,1.47,3.24,2.39,4.76.65,1.06,1.65,1.92,2.38,2.95.34.48.65,1.21.52,1.72-.1.4-.96.91-1.4.84-.57-.08-1.26-.57-1.55-1.08-.56-.94-.57-2.28-.94-3.07-1.14-2.41-1.3-5.51-4.2-6.93-.39-.19-.88-.23-1.33-.27-1.65-.16-3.31-.31-4.96-.45-1.01-.08-2.11-.42-1.39,1.37.52,1.29-.56,2.13-2.03,1.97-.42-.05-.97.19-1.31.47-2.4,1.95-4.78,3.92-7.11,5.93-.51.44-.95,1.03-1.2,1.64-.58,1.39-1.69,1.98-3.21,1.72-.67-.12-1.45-.1-2.09.11-5.57,1.8-11.22,2.33-17.03,1.33-.76-.13-1.6.26-2.4.33-.8.07-1.78.32-2.38-.01-1.51-.84-2.85-1.97-4.26-2.97-.42-.3-.83-.7-1.3-.81-1.16-.27-1.73-.9-2.01-2.02-.12-.48-.74-.94-1.23-1.24-4.53-2.77-8.88-5.74-12.15-9.92-.93-1.19-1.61-2.57-2.49-3.81-.33-.47-.88-.8-1.68-1.49-.95,3.59-1.81,6.85-2.68,10.09-.33,1.23.04,2.75-1.6,3.46-.22.1-.26.63-.35.97-.59,2.14-1.27,4.27-1.73,6.43-.34,1.62-.29,3.31-.63,4.92-.14.67-.73,1.47-1.35,1.76-.38.18-1.53-.36-1.72-.82-.25-.59-.14-1.59.25-2.13,2.35-3.28,3.11-7.11,4.2-10.82.09-.29-.24-.69-.35-1.05-.33-1.15-.68-2.23.55-3.23.58-.47.9-1.33,1.11-2.08,1.14-4.04,2.21-8.09,3.27-12.14.1-.39.01-.82.01-1.41-1.85,1.54-3.44,2.92-3.64,5.24-.03.39-.76,1.03-1.13,1.01-.85-.05-1.67-.45-2.51-.7.65-.92,1.09-2.27,1.99-2.68,1.38-.63,1.99-1.68,2.91-2.64,1.1-1.14.81-2.34.93-3.51.35-3.45.58-6.91.78-10.37.06-1.08.01-2.22-.29-3.25-.28-.94-.04-1.32.76-1.8.74-.44,1.41-1.09,1.89-1.78,1.54-2.21,2.98-4.48,4.51-6.81-2.1-.26-4.35-.52-6.59-.81-.67-.09-1.42-.08-1.99-.36-.54-.27-1.25-.87-1.27-1.35-.05-1.48-.78-2.41-2-3.15-1.3-.79-1.54-1.81-.97-3.24.39-.99.41-2.15.45-3.23.07-1.65.07-3.31.01-4.96-.03-.86-.32-1.72-.36-2.58-.07-1.74,0-3.5-.09-5.24-.06-1.17-.06-2.42-.48-3.48-2.23-5.59-2.95-11.36-2.02-17.23.37-2.38,1.21-4.82,2.44-6.91.92-1.56,2.67-2.77,4.27-3.83,1.61-1.07,3.5-1.76,5.26-2.62.14-.07.31-.1.41-.2.52-.52,1.05-4.22.69-4.89-.11-.2-.27-.45-.47-.51-1.96-.6-2.31-2.1-2.36-3.79-.04-1.25-.28-2.5-.18-3.73.14-1.82-.04-3.97.9-5.36,1.23-1.83,3.24-3.47,5.84-3.46,5.46.03,8.56,2.59,9.7,7.69.18.82.95,1.58.95,2.36-.01,1.44.05,3.18-.73,4.26-1.66,2.31-1.94,5.37-.78,7.77,1.76,3.65,5.56,4.66,8.48,6.81.9.67,1.79,1.51,2.32,2.46.98,1.76,1.69,3.65,2.76,6.03ZM41.7,114.77c-.42-1.17-.8-2.18-1.15-3.19-.18-.52-.21-1.13-.51-1.56-1.4-2-2.87-3.95-4.34-5.9-.22-.29-.83-.7-.85-.68-.8.8-1.82,1.54-2.23,2.52-.38.91-.17,2.08-.1,3.13.16,2.58.38,5.16.59,7.83,2.8-.7,5.76-1.44,8.59-2.14ZM93.34,156.86c-2.05-4.19-4.02-8.29-6.07-12.35-.3-.59-.94-1.11-1.54-1.45-.5-.28-1.19-.25-1.8-.35-.07.6-.33,1.26-.16,1.79.53,1.63,2.19,3,1.22,4.98-.04.08,0,.26.05.28,1.21.58.68,1.64.72,2.5.07,1.66.05,3.32,0,4.98-.02.75.11,1.12,1.02.93,2.13-.46,4.27-.86,6.57-1.32ZM77.55,145.17c.6.57,1.04,1.37,1.53,1.39,1.99.09,1.52-1.66,1.84-2.73.11-.35-.53-.9-.82-1.37-.79.83-1.57,1.67-2.55,2.7ZM83.49,172.87c.19,0,.38,0,.56,0,0-2.05.02-4.1-.02-6.15,0-.29-.35-.58-.54-.87-.11.33-.33.66-.32.98.04,1.5.15,2.99.23,4.49.03.52.06,1.04.08,1.55Z"/>
  <path class="cls-1" d="M183.21,136.79c1.47.4,2.62.72,3.67,1.01.72,3.29-2.72,2.65-3.73,3.87-1.11,2.5.35,4.24,1.33,5.95,3.57,6.3,6.23,12.93,8.24,19.81.47,1.62.72,3.3.99,4.97.67,4.08-1.22,6.77-4.88,8.7-5.4,2.86-11.06,5.35-15.5,9.65-.48.46-1.16.97-1.79,1.01-3.79.29-5.27,3.02-6.83,5.72v19.86c.09.18.67,1.41,1.26,2.64-.18.03-.35.06-.53.08.4,3.31.81,6.61,1.31,10.75-2.13,3.63-6.13,1.89-9.96,1.77-1.88-4.85-3.87-9.47-5.16-14.45-1.31-5.07-.38-10.14-1.2-15.38-3.53-2.33-6.11-5.43-6.44-9.97,2.42-1.63,4.99-3.36,7.52-5.06.88-8.04,1.13-15.63-2.67-23-1.75-3.39-2.34-7.34-3.66-11.72-4.2-2.16-6.87-6.53-9.02-11.24-2.16-4.74-3.65-9.62-.74-14.74-2.72-2.67-4.95-5.06-7.41-7.2-3.86-3.34-4.5-7.12-3.37-11.96,1.06-4.54,2.62-8.76,4.75-12.88.54-1.05,1.04-2.22,1.12-3.36.17-2.35,1.31-4.11,2.74-5.92,1.68-2.14,2.99-4.56,4.66-7.19,3.13-1.04,6.65-2.12,10.1-3.36,3.27-1.18,6.49-2.51,9.83-3.82.15-2.33.27-4.34.41-6.46.6-1.11,1.3-2.28,1.87-3.5,2.13-4.54,7.16-6.78,12.66-5.6,4.46.95,7.2,4.39,7.15,9.4-.03,3.02-.46,6.04-.75,9.43.66.3,1.6.66,2.48,1.15,3.23,1.79,4.43,4.65,4.55,8.08.18,5.23.39,10.47.63,16.85-.14.25-.88,1.57-1.64,2.93.48,5.52,4.34,9.06,7.58,12.74,3.53.75,6.59.65,9.72-.39,6.17-2.04,12.38-3.95,18.63-5.74,2.8-.8,5.31-1.81,6.53-4.36,13.13-1.18,17.23-.89,20.79,1.41-4.79,3.45-12.96,6.11-18.37,6.05-1.4-.02-2.89-.09-4.19.3-7.9,2.37-15.76,4.88-23.77,7.38-.59,1.21-1.17,2.4-1.85,3.8-1.92.88-3.97,1.83-5.84,2.69q-6.69-1.71-12.03.74c-.79,2.75-.49,5.53.77,8.56ZM167.11,159.66c-.42.09-.83.17-1.25.26.88,5.84,1.76,11.68,2.64,17.51,2.73-2.42,7.38-2.11,8.04-6.71-3.06-3.59-6.24-7.32-9.43-11.06Z"/>
</svg>