<?xml version="1.0" encoding="UTF-8"?>
<svg id="Layer_1" data-name="Layer 1" xmlns="http://www.w3.org/2000/svg" version="1.1" viewBox="0 0 189.18 64">
  <defs>
    <style>
      .cls-1 {
        fill: #fff;
        stroke-width: 0px;
      }
    </style>
  </defs>
  <path class="cls-1" d="M143.63,28.11c.65.4,1.25.73,1.8,1.12,1.97,1.39,3.01,3.35,3.36,5.69.53,3.59.21,7.1-.96,10.54-.06.17,0,.39,0,.58.19-.04.39-.04.56-.12.31-.15.58-.39.89-.5.21-.08.55-.1.7.02.26.19.29.53.05.81-.19.21-.41.39-.67.64.14.13.28.35.45.39.11.02.31-.22.41-.38.23-.37.4-.78.65-1.14.15-.22.39-.39.58-.59.14-.15.29-.29.39-.47.6-1.11.82-2.32.98-3.56.03-.22.21-.41.33-.62.12.23.35.46.35.69-.03,1.91-.41,3.77-1.38,5.43-.73,1.24-1.47,2.54-2.47,3.55-.98.98-2.3,1.58-3.74,1.84-.62.11-1.2.43-1.79.65-.96.36-1.54.14-1.9-.81-.2-.52-.51-.71-1.04-.6-2.02.45-4.07.54-6.13.56-.93,0-1.85.21-2.78.36-.17.03-.31.22-.5.36,0,0-.09,0-.11-.04-.31-.74-.94-.72-1.61-.72-5.34.02-10.68.02-16.02.02-.45,0-.86,0-1.09.51-.06.13-.37.21-.56.21-.47,0-.94-.07-1.41-.12-.12-.01-.3-.07-.34-.15-.23-.49-.65-.44-1.07-.44-5.59,0-11.18,0-16.76,0-.32,0-.65-.03-.96-.08-.38-.06-.58.03-.58.46-.02,1.77-.06,3.54-.07,5.32,0,.24.09.49.18.71.44,1.08.17,1.97-.91,2.4-1.71.69-3.47.71-5.15-.12-.98-.48-1.17-1.4-.8-2.42.19-.53.13-1.15.12-1.74,0-.06-.4-.12-.62-.16-.54-.1-.74.16-.67.67.07.56.12,1.13.23,1.68.18.88-.12,1.62-1,2.02-1.69.78-3.42.72-5.1-.02-1.01-.45-1.24-1.3-.93-2.33.19-.62.18-1.3.27-2.01h-1.49c.1.7.11,1.42.31,2.09.27.9.14,1.68-.69,2.13-1.82.98-3.7.97-5.53.05-.86-.43-1.07-1.36-.69-2.26.07-.17.11-.37.11-.55,0-.99,0-1.98,0-2.97,0-.47-.15-.63-.63-.43-.2.09-.45.07-.67.07-3.72-.01-7.44-.02-11.16-.04-1.92,0-3.85.02-5.77-.06-1.77-.07-3.44-.48-4.68-1.9-.08-.09-.19-.15-.23-.25-.29-.83-.94-.85-1.69-.84-2.76.03-5.53.05-8.27-.43-4.03-.71-7.14-2.85-9.28-6.28-2.2-3.53-2.82-7.39-1.86-11.47.16-.67.09-.76-.62-.77-.55-.01-1.11.03-1.66-.03-.35-.04-.69-.21-1.03-.32-.12-.04-.25-.1-.38-.1-.74.01-1.48.06-2.22.06-1.7.01-3.39.02-5.09,0-.43,0-.91-.29-1.28-.17-1.04.33-2.05.2-3.08.08-.55-.07-.95.16-1.37.53-.39.35-.9.64-1.41.79-.7.21-1.46.24-2.18.41-.23.05-.5.28-.58.49-.15.39-.38.54-.77.52-.21-.01-.42,0-.63,0-1.45,0-2.16-.56-2.24-2.01-.09-1.65-.05-3.31-.01-4.96,0-.4.19-.81.34-1.2.23-.59.66-.91,1.33-.86.26.02.54,0,.8-.04.59-.09,1.05-.1,1.31.63.1.28.66.49,1.04.54.93.13,1.85.28,2.66.78.18.11.37.2.52.34.72.68,1.43.76,2.32.34.26-.12.66-.16.89-.05.77.38,1.5.32,2.26.01.26-.1.55-.15.83-.15,2.02.05,4.03.14,6.05.18.33,0,.67-.18,1.01-.26.18-.05.36-.11.54-.1,1.56,0,3.12.04,4.68.02.21,0,.49-.14.62-.31,2.44-3.08,5.63-4.87,9.5-5.23,3.05-.29,6.13-.29,9.19-.38,3.45-.1,6.9-.16,10.35-.24,2.88-.07,5.75-.15,8.63-.22,1.81-.04,3.62-.09,5.43-.11.43,0,.63-.15.63-.6-.01-.67,0-1.33.02-2,.02-.4-.15-.59-.53-.67-.52-.11-.95-.34-1.2-.86-.39-.79-.03-1.57.87-1.81-.62.68-.57.74.89,1.33-.21.04-.38.07-.55.1.77.4,1.55.48,2.35.07h-1.19c.72-.14,1.37-.22,1.99-.41.61-.19.66-.4.39-.97.86.28,1.12,1.27.48,1.94-.25.26-.61.48-.96.57-.47.12-.61.36-.58.81.03.59.03,1.18.01,1.77-.01.45.14.66.62.65,1.68-.06,3.35-.09,5.03-.12.37,0,.51-.16.5-.52-.01-.69.03-1.37-.02-2.06-.01-.2-.25-.4-.42-.56-.12-.11-.32-.12-.47-.19-1.07-.48-1.2-1.53-.28-2.3,0,.46.55,1.33.98,1.45.79.22,1.6.31,2.36-.05,0-.07,0-.13,0-.2h-1.66c1.04-.21,2.2.03,2.94-1.06.71.34.78,1.32.05,1.89-.27.22-.63.34-.97.46-.3.1-.43.25-.43.57.02.65.02,1.3,0,1.94,0,.36.11.53.49.52,1.7-.05,3.39-.09,5.09-.12.34,0,.47-.17.48-.49.01-.59.03-1.18.07-1.77.02-.37-.12-.53-.5-.61-1.18-.27-1.7-1.31-1.1-2.16.35-.51.88-.67,1.56-.74-.12.17-.2.27-.27.38-.16.25-.46.52-.43.75.06.47.35.86.92.85.62,0,1.25-.01,1.87-.02,0-.09,0-.17,0-.26-.36-.02-.72-.05-1.11-.07.58-.09,1.16-.12,1.7-.27.79-.22.84-.49.23-1.17.61.22.96.56,1.04,1.1.08.55-.1,1.02-.61,1.31-.08.05-.17.09-.25.14-.31.16-.86.27-.9.48-.14.72-.11,1.47-.11,2.21,0,.08.25.23.39.23,1.64-.03,3.3.08,4.91-.17,1.06-.17,2.06-.82,3.04-1.34.47-.25.88-.23,1.01.31.07.28.01.59.01.98.44-.03.89-.08,1.34-.09,2.88-.09,5.75-.18,8.63-.26,2.8-.08,5.6-.14,8.4-.23,3.03-.1,6.05-.22,9.08-.35,3.16-.14,6.32-.28,9.48-.45,4.36-.25,8.71-.5,13.06-.81,6.27-.44,12.55-.93,18.72-2.18,3.41-.69,6.72-1.73,9.66-3.69,1.3-.86,2.43-1.89,3.34-3.16.11-.16.16-.37.22-.57.45-1.55.85-3.12,1.36-4.65.18-.54.57-1.04.95-1.48,1-1.16,2.14-.9,2.85.18.61.93,1.08,1.98,1.4,3.05,1,3.33,1.56,6.76,1.74,10.23.17,3.23.27,6.47.21,9.71-.07,3.87-.38,7.73-1.14,11.53-.42,2.09-.91,4.18-2.11,6-.82,1.25-1.87,1.34-2.93.28-.88-.88-1.3-2.01-1.62-3.17-.28-1-.47-2.04-.72-3.05-.05-.19-.16-.38-.28-.55-1.37-1.84-3.23-3.05-5.24-4.05-3.35-1.68-6.97-2.42-10.64-2.95-4.61-.67-9.23-1.07-13.88-1.28-2.17-.1-4.34-.22-6.51-.34-.12,0-.25,0-.44,0ZM65.16,42.06c-.31.13-.61.29-.93.38-.32.09-.67.1-1,.14,1.21.14,2.25-.2,3.04-1.15-.23.12-.46.23-.7.35-.82.17-1.65.35-2.47.52,0,.03,0,.07.01.1.68-.11,1.36-.22,2.04-.33ZM100.92,41.72c1.4.32,2.79.36,4.17-.18h-4.36c-.17-.03-.34-.11-.5-.09-.21.03-.4.21-.61.21-1.04.01-2.09-.02-3.13-.02-.18,0-.37.09-.55.14.01.05.02.1.03.16.09.03.17.08.26.09,1.42.01,2.85.03,4.27.01.14,0,.28-.2.42-.31ZM153.71,20.35c-.44-.04-.88-.13-1.32-.12-3.03.1-6.05.22-9.08.34-1.98.08-3.96.16-5.94.22-2.55.09-5.1.16-7.65.24-2.49.08-4.99.16-7.48.22-3.26.09-6.51.16-9.77.23-3.2.08-6.4.16-9.6.22-2.4.05-4.8.11-7.2.11-.74,0-1.25.29-1.63.86-.12.17-.14.41-.21.62.2.04.39.12.59.12,1.84-.02,3.69-.07,5.53-.09,4.04-.05,8.08-.08,12.12-.13,2.53-.03,5.07-.07,7.6-.11,3.26-.04,6.51-.08,9.77-.12,2.42-.03,4.84-.06,7.25-.12,2.09-.05,4.19-.15,6.28-.21,1.87-.05,3.73-.09,5.6-.12,3.03-.05,6.06-.08,9.09-.13.53,0,1.05-.11,1.58-.16.19-.02.38-.01.57,0,1.14.01,2.28.05,3.42.04,1.41-.02,2.82-.08,4.22-.1,1.61-.02,3.21,0,4.82-.03,1.25-.03,2.5-.09,3.75-.19,1.13-.09,2.31-.08,3.29-.79.6-.44,1.17-.92,1.72-1.41.49-.44.64-1.17.39-1.65-.29-.57-1.34-1.26-1.84-1.15-.7.15-1.39.36-2.08.53-.86.21-1.72.43-2.6.59-.71.13-1.43.17-2.14.27-1.18.17-2.36.39-3.54.52-2.04.24-4.09.45-6.13.63-1.38.12-2.77.22-4.16.26-.51.02-.93-.03-.91.65,0,.07-.13.15-.22.26-.08-.12-.15-.18-.18-.26-.2-.57-.19-.56-.61-.12-.11.12-.31.15-.47.23-.24-.66-.25-.66-.73-.28-.13.1-.33.12-.5.18-.17.06-.39.06-.52.17-.43.37-.76.32-1.08-.22.16.09.31.23.49.27.11.03.28-.05.38-.13.05-.04.06-.23.02-.3-.12-.19-.72-.07-.88.17ZM68.7,43.16c0-.51,0-.89,0-1.27-.01-2.14-.01-4.29-.05-6.43-.02-1.03-.13-2.05-.17-3.08-.02-.42-.26-.48-.61-.49-2.97-.02-5.94-.07-8.91-.09-6.69-.04-13.38-.07-20.08-.11-.96,0-1.9.18-2.85.28-1.91.21-3.84.15-5.77.15-.59,0-.84.24-1.02.76-.68,1.97-.85,3.98-.48,6.03.62,3.36,3.22,6.82,7.11,7.64,2.58.54,5.23.52,7.85.58.65.01,1.13-.06,1.24-.81.03-.18.16-.34.26-.51,1.21-2.05,3.23-2.59,5.39-2.79.93-.09,1.87,0,2.8-.01,2.76-.04,5.52-.08,8.28-.13.17,0,.33-.06.5-.09-.15-.19-.3-.27-.45-.34-1.65-.69-2.46-3.06-2.39-4.15.09-1.41.2-2.81.32-4.22,0-.09.3-.25.34-.22.2.16.45.34.5.56.1.44.11.9.1,1.36-.03,1.12-.26,2.25-.12,3.34.21,1.67,1.83,2.86,3.43,2.73,1.77-.15,3.01-1.46,3.02-3.27,0-.72-.14-1.44-.15-2.16,0-.66.02-1.33.13-1.98.04-.22.39-.39.59-.58.09.22.25.44.26.66.06,1.02.05,2.05.12,3.07.15,2.17-.42,3.96-2.5,5.01-.05.02-.07.08-.21.24,1.2.41,2.39-.03,3.51.34ZM134.65,43.69c.02-.24.04-.45.05-.65.06-.93.14-1.86.18-2.79.13-2.56.56-5.12.06-7.69-.09-.45-.27-.57-.71-.42-.2.07-.43.1-.65.08-.35-.04-.69-.19-1.03-.2-1.03-.03-2.06,0-3.09,0-9.19-.03-18.37-.07-27.56-.09-3.15,0-6.29,0-9.44-.02-.47,0-.72.12-.74.62-.04,1.05-.12,2.09-.16,3.14-.01.36.07.72.05,1.07-.06,1.23-.17,2.46-.22,3.69,0,.15.2.43.3.43,1.01,0,2.05.1,3.01-.12.56-.12,1.03-.08,1.57-.06,1.5.04,3-.07,4.51-.12.04,0,.07-.06.11-.09-1.95-1.83-2.44-4.34-1.19-6.01,1.39-1.85,4.01-2.33,5.94-1.11.95.6,1.42,1.5,1.68,2.56.49,1.99-.28,3.46-2.06,4.61,1.01.07,1.83.17,2.64.17,3.6-.01,7.21-.06,10.81-.08,3.09-.02,6.18-.03,9.27-.02.85,0,1.71.11,2.56.19,1.1.09,2,.61,2.77,1.35.47.45.85,1,1.32,1.55ZM144.69,38.24c-.09-.81-.15-1.78-.3-2.74-.22-1.47-1.09-2.46-2.41-3.13-1.44-.73-2.94-.41-4.43-.28-.14.01-.39.17-.39.26,0,.8-.39,1.53-.49,2.28-.26,2.09-.33,4.21-.47,6.32-.09,1.29-.18,2.58-.23,3.88-.04.96.31,1.5.95,1.74.49.19.61,0,.62-.45.01-.49.06-.99.11-1.48.02-.16.06-.39.16-.46.37-.22.3-.54.25-.86-.08-.53-.2-1.05-.24-1.58-.01-.16.17-.33.26-.5.1.12.27.22.3.36.12.56.27,1.12.29,1.68.02,1.15-.03,2.31-.06,3.47,0,.28-.05.57.38.51,1.88-.25,3.46-1.05,4.37-2.76.99-1.89,1.16-4,1.31-6.26ZM69.2,28.27s.01-.1.02-.14c-.38,0-.76,0-1.13,0-3.34.04-6.67.08-10.01.11-4.23.04-8.46.08-12.69.11-2.61.02-5.22.01-7.84.04-.23,0-.59.14-.68.32-.39.76-.21,1.01.66,1,5.74-.03,11.48-.08,17.21-.09,12.24-.03,24.48-.05,36.72-.08,3.45,0,6.9-.04,10.35-.06.11,0,.23,0,.34,0,.43-.01.39-.32.4-.61,0-.32-.12-.44-.45-.42-.83.07-1.65.13-2.48.2-.21.02-.42.03-.63.03-2.51-.07-5.02-.17-7.53-.19-1.92-.02-3.85.08-5.77.09-10.17.05-20.35.08-30.52.12-3.64.01-7.28,0-10.93,0-.19,0-.38-.03-.57-.04v-.14c8.52-.08,17.02-.16,25.52-.24ZM49.36,22.58c0-.06-.02-.12-.02-.18.2-.04.4-.1.61-.1,2.87-.08,5.75-.17,8.62-.23,3.01-.06,6.02-.09,9.03-.13.23,0,.46.03.68-.01.38-.07.74-.19,1.11-.29-.01-.05-.02-.1-.04-.15-2.3.07-4.6.16-6.9.22-3.41.09-6.82.17-10.23.23-3.2.06-6.4.08-9.6.15-1.39.03-2.78.11-4.16.21-.61.04-1.22.11-1.8.27-.46.13-.86.49-1.33.61-2.04.53-3.89,1.43-5.5,2.8-.32.27-.41.52-.09.97,2.11-1.44,4.46-2.25,6.97-2.62,2.48-.37,4.97-.34,7.47-.27-.34.16-.69.24-1.03.35-.65.21-.64.22-.75.6,2.81-1.22,5.75-1.22,8.79-.97-.51-.25-.98-.49-1.46-.72.35.02.68.12,1.01.23.37.12.74.34,1.12.37.64.05,1.29-.01,1.94-.02,4.5-.04,9-.09,13.49-.13.11,0,.25.03.34-.02.13-.07.31-.18.34-.31.08-.34.1-.7.15-1.13-6.28.09-12.52.18-18.76.26ZM39,28.11c.23.04.32.07.41.07,4.23-.05,8.46-.11,12.7-.16,5.22-.05,10.45-.09,15.67-.13.65,0,.75-.14.7-.72-.05-.55-.47-.41-.78-.41-8.52-.01-17.05.01-25.57-.05-1.31-.01-2.07.74-3.12,1.4ZM102.94,33.83c-.33.12-1.04.27-1.63.61-1.94,1.11-2.08,3.65-.3,4.81,1.58,1.03,3.67.76,4.94-.63,1.08-1.18,1.05-2.65-.06-3.77-.72-.72-1.61-.98-2.96-1.02ZM133.5,29.27c.13-.97.08-1.03-.76-1.03-1.6,0-3.2,0-4.8,0-3.77.03-7.54.07-11.3.09-4.08.02-8.16.01-12.24.01-.36,0-.72.01-1.09,0-.4-.01-.53.2-.53.57,0,.37.16.49.53.49,1.01-.02,2.01-.02,3.02-.02,6.42,0,12.84,0,19.27-.02,2.34,0,4.69-.07,7.03-.1.28,0,.56,0,.87,0ZM95.44,45.54c-.32-.07-.68-.19-1.05-.22-.9-.06-1.81-.08-2.72-.1-.08,0-.24.05-.24.09-.03.51-.05,1.02-.02,1.52,0,.03.47.03.73.05.08,0,.15,0,.23,0,3.69-.03,7.39-.06,11.08-.08,2.48-.02,4.95-.02,7.43-.03.59,0,.68-.14.71-.89.02-.51-.23-.68-.69-.67-.61.02-1.22.06-1.83.06-4.17.02-8.35.02-12.52.04-.35,0-.69.15-1.1.24ZM112.31,48.49h0c-6.54.01-13.08.01-19.62.02-.26,0-.63-.1-.62.36,0,.43.34.39.62.4.27,0,.53,0,.8,0,3.6-.03,7.19-.08,10.79-.09,9.12-.02,18.23-.01,27.35-.02.19,0,.4.03.57-.03.13-.05.28-.22.29-.34,0-.1-.19-.23-.32-.29-.11-.05-.26-.02-.4-.02-6.48,0-12.97,0-19.45,0ZM36.37,28.26s-.02-.07-.03-.11c-1.25,0-2.51.01-3.76,0-2.63-.03-5.26-.08-7.89-.13-.17,0-.42-.05-.5.04-.46.49-1.06.38-1.63.41-.47.02-.7.19-.68.69.02.5.35.46.68.46,1.14,0,2.29.01,3.43.02,3.32.02,6.63.05,9.95.06.17,0,.43-.15.47-.29.06-.18-.01-.43-.08-.63-.04-.11-.18-.18-.3-.3.13-.09.23-.16.34-.23ZM58.93,50.81h0c-1.85,0-3.7,0-5.55,0-1.01,0-2.02,0-3.03,0-.37,0-.64.14-.49.53.05.14.36.24.55.25,1.95.03,3.91.04,5.86.05,3.3.02,6.59.04,9.89.04.51,0,1.03-.04,1.54-.11.13-.02.33-.22.33-.34,0-.13-.17-.32-.31-.38-.16-.07-.37-.03-.56-.03-2.74,0-5.49,0-8.23,0ZM26.5,41.17l-.15.06c.02.17,0,.36.05.52.41,1.17.84,2.33,1.71,3.25.38.4.72.84,1.12,1.21.69.64,1.34,1.37,2.14,1.82,1.18.66,2.45,1.16,3.81,1.44,1.54.32,3.08.39,4.63.45.98.04,1.96.08,2.94.13.58.03,1.15.08,1.69-.3-.29-.14-.58-.23-.87-.23-2.61-.02-5.22.04-7.79-.53-1.71-.38-3.31-.97-4.74-2.03-1.93-1.43-3.31-3.26-4.27-5.44-.06-.13-.18-.24-.27-.36ZM97.06,21s.02.08.03.12c.19,0,.38,0,.57,0,1.81-.08,3.61-.19,5.42-.24,2.17-.06,4.34-.05,6.5-.12,2.4-.07,4.79-.2,7.19-.29,3.14-.12,6.28-.22,9.42-.35,3.6-.14,7.19-.3,10.78-.47,2.3-.11,4.6-.23,6.9-.36.09,0,.18-.06.27-.1-.26-.09-.51-.1-.75-.09-2.64.14-5.29.3-7.93.42-3.69.17-7.38.32-11.08.46-3.37.13-6.74.24-10.11.34-3.49.1-6.97.17-10.46.27-1.98.06-3.96.13-5.94.22-.27.01-.54.12-.81.18ZM13.33,28.46c-.08-.02-.15-.03-.23-.05-.07.37-.2.74-.18,1.1,0,.09.51.21.78.21,2.32.02,4.64.02,6.97.03.31,0,.57,0,.5-.4-.06-.37.28-.96-.47-1-.7-.04-1.4-.09-2.11-.1-1.43-.03-2.86,0-4.28-.07-.52-.02-.75.12-.78.62,0,.1-.04.2-.07.3h-.09c-.02-.22-.03-.43-.05-.65ZM49.87,45.77v.66c.24,0,.43,0,.61,0,1.5-.02,3.01-.06,4.51-.06,3.12,0,6.25.04,9.37.04.35,0,.71-.21,1.18-.35-.66-.43-13.95-.58-15.68-.28ZM60.81,44.94s0,.06,0,.09c1.43,0,2.86.01,4.29-.02.19,0,.38-.21.57-.33-.18-.11-.37-.3-.55-.31-.99-.03-1.97-.01-2.96-.02-3.77-.02-7.55-.05-11.32-.08-.19,0-.39-.03-.57.02-.15.05-.28.19-.42.3.13.11.24.24.39.32.09.05.22.02.34.02,3.41,0,6.82,0,10.23,0ZM17.36,30.29h0c-1.09,0-2.17,0-3.26,0-.31,0-.61.05-.56.45.05.37-.16.93.51.95.57.02,1.14-.02,1.7-.03,1.62-.03,3.24-.07,4.85-.06.64,0,.55-.4.58-.8.02-.47-.26-.52-.63-.52-1.07,0-2.13,0-3.2,0ZM70.74,47.09c.16.22.28.44.45.62.09.1.24.14.36.2.05-.13.13-.26.14-.4.07-.81.13-1.62.18-2.43.01-.19-.03-.38-.04-.56-.01-.22-.02-.43-.02-.65,0-.15.04-.3.04-.45-.02-1.51-.05-3.03-.09-4.54,0-.19-.14-.5-.28-.53-.33-.08-.7-.05-1.05-.04-.04,0-.1.16-.11.24-.01.38-.02.76,0,1.14.02.91.09,1.83.04,2.73-.04.69.09,1.27.49,1.82.91,1.23.9,1.65-.11,2.85ZM129.54,42.47c0-.06.01-.12.02-.18-.11-.04-.23-.1-.34-.1-.49,0-.99,0-1.48,0-3.6,0-7.21,0-10.81.02-2.92.02-5.83.07-8.75.09-1.03,0-2.06.02-3.08-.08-.45-.05-.7.08-.96.47,8.47-.07,16.94-.15,25.41-.22ZM118.08,45.44c-.21-.08-.44-.24-.67-.24-1.58-.02-3.16-.05-4.73.01-.63.02-.3.62-.36.96-.08.42.13.62.58.61,1.41-.02,2.81,0,4.22-.03.35,0,.69-.18.96-.26v-1.05ZM22.02,31.07c.25-.02.42-.06.59-.06,1.84.02,3.69.07,5.53.07,1.44,0,2.88-.07,4.32-.09,1.07-.02,2.14,0,3.2-.02.15,0,.29-.18.44-.27-.14-.09-.28-.26-.43-.26-2.12-.01-4.23-.01-6.35,0-1.29,0-2.59.06-3.88.07-1.15.01-2.31,0-3.51,0,.03.21.06.37.09.56ZM86.71,47.63c.28-.21.67-.34.6-.96-.06-.54.22-1.1.27-1.66.05-.54,0-1.08,0-1.62.03-1.43.06-2.86.1-4.29,0-.26.09-.51.13-.75-.22-.02-.47-.02-.71-.07-.35-.07-.45.09-.44.4,0,.19.01.38.02.57.02,1.53.31,3.03.07,4.59-.19,1.24-.04,2.53-.04,3.8ZM125.56,46.53c.4.06.82.17,1.24.19.95.04,1.9.08,2.84.02.34-.02.72-.29.97-.56.13-.14.1-.56-.01-.77-.21-.38-.57-.5-1.03-.38-.29.08-.61.01-.91.05-1.06.15-2.17-.15-3.16.37.02.34.04.65.06,1.07ZM83.44,38.04s-.02,0-.03,0c0,.1.02.19,0,.28-.08.43,0,.68.53.68.5,0,.86.01.79-.66-.08-.71-.11-1.43-.13-2.15-.02-1.27-.02-2.54-.02-3.81,0-.33-.12-.49-.47-.49-.33,0-.41.18-.42.47-.08,1.89-.16,3.77-.24,5.66ZM30.85,45.35s-.06.07-.09.1c.2.24.38.5.61.72,1.25,1.19,2.8,1.81,4.45,2.21,2.66.65,5.38.41,8.08.53.16,0,.33-.15.49-.23-.17-.1-.34-.28-.51-.29-1.88-.09-3.77-.13-5.65-.23-2.63-.14-5.07-.85-7.09-2.64-.08-.07-.19-.11-.28-.16ZM75.31,37.99q.03.85.88.91s.08.01.11.02c.33.06.46-.1.45-.41-.03-1.05-.05-2.11-.1-3.16-.04-.98-.13-1.97-.18-2.95-.02-.28-.09-.54-.41-.46-.17.04-.39.3-.4.47-.06,1.3-.06,2.61-.09,3.91,0,.26-.07.52-.11.79-.05.3-.1.6-.16.89ZM84.73,44.48s0,0,0,0c0-.72-.02-1.45,0-2.17.03-.84-.6-.39-.93-.48-.4-.11-.43.21-.43.48-.01,1.47,0,2.93-.02,4.4,0,.53.32.51.68.5.39,0,.73-.01.71-.56-.03-.72,0-1.45,0-2.17ZM125.43,41.63s0-.05,0-.08c-.04-.01-.07-.03-.11-.03-4.13,0-8.26.01-12.39.04-2.05.01-4.11.06-6.16.09-.13,0-.26-.05-.39-.05-.29,0-.59.04-.88.06v.25c.22.05.44.14.67.14.7,0,1.41-.05,2.11-.06,4.95-.05,9.9-.09,14.86-.16.77-.01,1.54-.13,2.31-.2ZM2.92,25.9c-.59.07-1.17.13-1.74.22-.12.02-.26.16-.31.28-.33.76-.55,1.55-.37,2.38.04.17.14.46.24.47.58.06,1.16.05,1.74.05.06,0,.15-.17.16-.27.1-1.01.19-2.02.29-3.14ZM1.6,30.66s0,0,0-.01c-.09,0-.19,0-.28,0-.76,0-.83.02-.84.79,0,.57.12,1.16.25,1.72.06.27.24.69.42.73.49.1,1.01.02,1.52,0,.04,0,.12-.15.11-.23-.05-.89-.09-1.77-.18-2.65-.01-.12-.23-.28-.38-.33-.19-.06-.41-.01-.62-.01ZM78.26,31.94c.06.39.2.66.12.82-.43.86-.16,1.75-.14,2.63,0,.39.09.79.21,1.17.04.14.25.29.4.32.11.02.32-.13.37-.25.18-.47.34-.96.45-1.45.09-.42.07-.87.16-1.29.13-.61-.23-1.03-.86-1.03-.12,0-.23-.16-.35-.24.49-.14.89-.16,1.28-.2.09-.01.24-.15.23-.19-.04-.11-.14-.27-.22-.27-.56-.02-1.11-.01-1.63-.01ZM7.19,27.72c-.09-.13-.12-.21-.17-.25-.74-.49-1.58-.49-2.42-.41-.08,0-.2.13-.21.22-.09.62-.17,1.24-.2,1.87,0,.13.21.38.34.39.56.04,1.14.07,1.69-.01.26-.04.59-.3.7-.55.08-.17-.13-.5-.26-.73-.09-.16-.26-.28-.51-.54h1.04ZM178.95,13.08c-3.73,1.51-7.43,3.12-11.4,3.93,4.04-.58,8.12-1.06,11.4-3.93ZM97.22,26.95s.01.08.02.12c.93.05,1.87.06,2.79.16.67.07,1.33.24,2,.36.15.03.3.03.45.01.39-.04.79-.14,1.18-.14,4.33-.02,8.65-.02,12.98-.03,1.35,0,2.7,0,4.05,0,0-.03,0-.07,0-.1-7.83-.13-15.65-.26-23.48-.39ZM70.18,34.74c.11.39.22.94.42,1.45.04.1.51.17.53.13.21-.4.49-.82.49-1.24,0-.5.29-1,.02-1.53-.08-.15.06-.43.14-.62.3-.67.09-1.01-.63-1.03-.13,0-.27,0-.4,0-.41-.03-.59.15-.58.57.02.7,0,1.4,0,2.27ZM86.27,49.55v9.35c.68-.23.8-.48.68-1.12-.09-.5-.19-1-.19-1.51,0-1.36.48-2.66.43-4.05-.04-.99-.05-1.87-.92-2.67ZM86.97,36.2c.47-.67.94-1.29.88-2.18-.03-.53-.01-1.07.07-1.59.07-.42-.1-.51-.45-.51-.19,0-.38,0-.57,0-.45-.04-.61.16-.6.6.02.67.03,1.34-.02,2-.05.64-.01,1.21.68,1.68ZM184.47,22.8c.1-.04.19-.07.29-.11-.07-.46-.05-.96-.24-1.36-.15-.32-.53-.6-.87-.73-.14-.05-.49.31-.66.54-.82,1.07-.56,2.28-.37,3.46.04.25.28.47.43.7.06-.02.12-.05.18-.07.14-.88.29-1.75.41-2.53,0,.01.09.16.18.31.04,0,.08-.02.13-.02v-1.1s.06.01.09.02c.14.3.29.6.43.91ZM134.57,29.27c1.36,0,2.69,0,4.01,0,.39,0,.76-.05.77-.54,0-.53-.43-.49-.79-.5-1.08,0-2.16,0-3.25,0-.85,0-.92.09-.74,1.04ZM52.19,25.34s.02-.08.02-.13c-.17-.05-.35-.15-.52-.15-1.45,0-2.89,0-4.34.03-1.01.02-2.02.05-3.02.09-.13,0-.25.12-.38.18.1.12.19.3.32.33.31.07.63.1.95.08.49-.02.98-.11,1.48-.12,1.36-.03,2.72-.01,4.08-.06.47-.02.94-.17,1.41-.26ZM177.38,25.43c.12.06.25.1.36.18.86.56,1.71,1.14,2.59,1.67.19.12.48.08.72.12.04-.29.21-.66.1-.84-.26-.4-.61-.79-1.01-1.04-.81-.49-1.67-.86-2.75-.09ZM49.94,43.92c0,.05.02.1.03.15h12.48c-.24-.22-.51-.42-.79-.43-.55,0-1.1.14-1.65.15-3.16.01-6.32,0-9.48,0-.2,0-.39.08-.59.12ZM78.36,38.19v4.66c.5-.95.21-1.97.83-2.83.21.43.37.78.54,1.12.1-.33.07-.61.05-.89-.02-.28-.05-.56-.04-.85,0-1.12,0-1.12-1.12-1.22-.06,0-.11,0-.25.01ZM79.38,53.97c-.91.42-.93.44-1,1.35-.02.22,0,.45,0,.68,0,.71.03,1.42.03,2.13,0,.29-.04.58-.07.89h.92c-.06-.37-.12-.69-.15-1.02-.02-.2-.04-.4-.01-.59.08-.69.21-1.37.27-2.06.04-.44,0-.89,0-1.38ZM75.37,44.54c1.29-.24,1.45-.42,1.42-1.54,0-.09,0-.19,0-.28q-.05-1.02-1.05-1.01s-.04-.01-.06,0c-.11.08-.3.16-.3.24-.02.86-.01,1.72-.01,2.6ZM4.66,30.37c-.46.37-.6,1.39-.19,2.28.13-.09.3-.27.39-.24.63.22.88-.27,1.24-.58.33-.28.45-.65.17-.94-.21-.22-.6-.29-.92-.4-.18-.06-.37-.07-.69-.11ZM120.43,45.48c.04.18.11.34.09.48-.11.63.34.76.77.77.58.01,1.17-.09,1.73-.13,0-.47,0-.81,0-1.14-.73-.41-1.1-.41-2.58.03ZM129.06,40.93s0,0,0,0h-21.69c0,.07,0,.14,0,.21,7.23-.07,14.46-.13,21.68-.2ZM75.92,46.54c-.39.06-.65.06-.88.14-.84.31-1.44.86-1.63,1.76-.11.5.18.77.57.59.99-.47,1.57-1.27,1.94-2.49ZM110.68,47.16s0-.04,0-.06h-18.51s0,.04,0,.06h18.51ZM146.66,50.83c.23-.18.39-.35.58-.47.3-.2.3-.38,0-.54-.4-.22-.79-.51-1.22-.6-.34-.08-.76.03-1.1.16-.34.14-.36.4-.09.72.52.6,1.21.65,1.83.75ZM103,27.72s0,.05,0,.08h24.56s0-.05,0-.08h-24.57ZM140.47,26.79c0,.06,0,.13,0,.19,3.28.12,6.56.23,9.84.35,0-.07,0-.13,0-.2-3.27-.29-6.55-.44-9.84-.34ZM95.97,42.43c.44.4,5.48.42,6.13.17-.03-.05-.05-.1-.09-.14-.36-.44-.8-.16-1.22-.15-1.41,0-2.81,0-4.22.03-.2,0-.4.07-.6.1ZM43.03,30.66c0-.08-.01-.17-.02-.25-.53,0-1.06.01-1.6,0-1.29-.03-2.58-.07-3.86-.1-.15,0-.32-.03-.45.02-.12.04-.21.17-.31.26.11.07.22.19.33.19.64.01,1.28-.01,1.93-.01,1.12,0,2.23,0,3.35,0,.21,0,.42-.06.63-.09ZM49.44,44.41c-1.19.13-2.17.51-2.94,1.3-.16.17-.26.42-.32.65-.03.11.09.26.14.39.11-.05.23-.09.32-.17.33-.28.62-.64.99-.84.54-.29,1.15-.46,1.72-.72.13-.06.25-.24.3-.39.02-.06-.16-.19-.2-.23ZM72.25,19.83s-.02,0-.03,0c0-.4.04-.8-.02-1.19-.02-.16-.25-.29-.38-.44-.13.13-.37.26-.37.39-.02.91-.01,1.83.02,2.74,0,.16.2.32.31.48.13-.14.34-.28.37-.44.07-.51.07-1.02.1-1.53ZM142.45,47.28c-.25.05-.35.05-.42.09-1.02.62-2.13.99-3.32,1.12-.15.02-.29.22-.43.33.16.12.33.34.49.33,1.23-.06,2.36-.38,3.26-1.28.13-.13.22-.31.42-.59ZM71.64,54.94s-.05,0-.08-.01c-.01-.17,0-.34-.04-.51-.04-.28-.1-.53-.49-.45-.33.06-.57.14-.54.56.04.57,0,1.14.03,1.7.01.19.16.38.24.57.19-.13.5-.21.55-.38.16-.47.21-.98.31-1.47ZM38.07,26.76c-1.51.09-2.87.31-4.18,1.04,1.72.41,3.34.03,4.18-1.04ZM134.21,48.96c.7.35,1.32.35,1.91-.03.12-.08.22-.27.22-.41,0-.08-.21-.21-.33-.23-.42-.07-.85-.14-1.28-.14-.82,0-1.28.38-1.3.95.31.05.61.1.9.14-.01-.03-.05-.11-.12-.29ZM84.6,52.4s0,0,0,0c0-.21.04-.43-.01-.62-.03-.14-.15-.32-.28-.37-.56-.23-.97.06-.98.66,0,.23.02.46,0,.68-.05.49.13.66.64.66.52,0,.69-.19.64-.67-.01-.11,0-.23,0-.34ZM8.4,28.47l-.13-.03c-.14.42-.28.84-.42,1.26.46.04.85.07,1.24.09q1.2.06.95-1.06c-.53.14-1.29-.67-1.65.32v-.59ZM49.25,52.98c.13-.1.26-.19.39-.29-.11-.11-.2-.28-.32-.31-.92-.28-1.81-.63-2.55-1.27-.03-.02-.06-.06-.09-.07-.1-.01-.25-.05-.3,0-.06.06-.08.22-.04.3.08.17.2.32.33.45.69.73,1.53,1.1,2.59,1.18ZM47.43,49.65c-.06.04-.12.07-.18.11.04.24.02.5.13.7.35.64.94.99,1.64,1.13.19.04.54-.03.61-.15.15-.3-.03-.5-.36-.63-.34-.14-.64-.39-.96-.59-.29-.19-.59-.37-.88-.56ZM126.86,47.65s0-.02,0-.03h-19.79s0,.02,0,.03h19.78ZM100.46,27.71c-.95,0-1.9.08-2.84-.02-.93-.1-1.83-.37-2.75-.57.45.9,4.47,1.42,5.59.59ZM34.38,25.73s.01.1.02.15c.72-.09,1.45-.17,2.17-.26.34-.04.68-.14,1.03-.15.74-.02,1.47.02,2.21,0,.23-.01.44-.19.67-.29-2.1-.15-4.12,0-6.09.56ZM35.73,46.96c2.76.63,5.69.66,8.63.51-2.92-.17-5.84-.35-8.63-.51ZM88.75,48.59c0,.08,0,.17,0,.25.88.57,1.88.43,2.85.4.1,0,.27-.23.26-.34,0-.11-.19-.29-.31-.3-.45-.04-.91-.02-1.36-.02-.48,0-.96,0-1.44,0ZM11.36,28.37c-.48,1.5-.21,1.44.9,1.42.16,0,.42-.27.44-.43.02-.24-.1-.68-.23-.71-.31-.06-.65.07-1.01.13,0,.02-.03-.12-.1-.41ZM145.26,43.32c-.58,1.38-1.17,2.81-1.75,4.19.99-.47,1.95-2.74,1.75-4.19ZM10.03,31.31c.18-1.03.13-1.08-.82-1.11-.08,0-.15,0-.23,0-.37-.02-.56.17-.46.52.07.25.2.59.39.66.34.14.78.16.87-.43.1.14.15.22.24.36ZM52.42,50.54s-.01.05-.02.07h15.1s0-.05,0-.07h-15.08ZM24.81,37.63c.19-1.72.38-3.44.58-5.16-.77,1.65-.87,3.38-.58,5.16ZM44.84,30.41c0,.07,0,.14,0,.21,1.76-.07,3.52.4,5.27-.21h-5.27ZM141.64,29.03c0-.09,0-.18-.01-.27-.53-.38-1.15-.5-1.79-.48-.1,0-.28.25-.28.39,0,.19.15.54.23.53.62-.02,1.24-.1,1.86-.16ZM68.2,50.98c.16.29.21.58.37.65.61.3,1.67-.02,2.17-.65h-2.54ZM87.05,21.18h-5.06c0,.07,0,.14,0,.22,1.69.18,3.38.17,5.06-.22ZM93.88,21.04h-4.43c0,.07,0,.15,0,.22,1.48.05,2.96.06,4.43-.22ZM91.58,21.91c.27.5.53,1,.85,1.6.22-.57.4-1.04.61-1.6h-1.46ZM12.71,30.79c.07-.43-.16-.6-.59-.59-.33,0-.57.07-.54.47.03.4.07.76.62.77.46,0,.54-.26.51-.65ZM94.92,42.49c-.51-.28-2.65-.22-2.94.08.47.32,2.57.26,2.94-.08ZM73.26,23.61s0-.02,0-.03c-.89-.04-1.77-.1-2.66-.12-.28,0-.55.1-.83.15.89.56,3.19.62,3.85.18-.99.15-1.94.2-2.88.03,0-.07,0-.15,0-.22h2.52ZM4.14,26.86c-.27-.03-.63-.2-.41.37.05.12-.02.29-.04.43-.07.43-.18.85-.2,1.28,0,.18.17.36.26.54.09-.19.24-.37.26-.57.07-.66.09-1.32.14-2.05ZM66.95,44.37s0,0,0,0c-.26,0-.53-.03-.79.01-.11.02-.2.17-.3.27.1.09.19.26.3.27.51.05,1.02.07,1.53.06.11,0,.22-.2.32-.31-.11-.1-.2-.26-.33-.28-.24-.05-.49-.01-.73-.01ZM86.28,23.67l.07.3c.96.04,1.92.09,2.89.13,0-.05,0-.1,0-.14-.79-.04-1.57-.07-2.36-.11,0-.08,0-.15,0-.23h2.64c-.94-.1-1.86-.18-2.78-.22-.15,0-.31.18-.46.27ZM78.03,21.37h-3.83c1.3.53,2.58.46,3.83,0ZM170.14,29.05c.02-.1.03-.2.05-.3-1.28-.17-2.56-.34-3.84-.51-.01.08-.02.16-.03.24,1.27.19,2.55.38,3.82.57ZM72.71,51.86c.18.14.34.35.51.36.36.02.76-.71.6-1.04-.07-.14-.21-.31-.34-.33-.12-.02-.3.13-.38.25-.14.19-.22.43-.38.76ZM44.26,48.06v-.08h-5.86s0,.05,0,.08h5.86ZM59.84,43.34s0-.05,0-.07h-9.43s0,.05,0,.07h9.43ZM48.97,47.96s0,.07,0,.1h5.32s0-.07,0-.1h-5.31ZM137.37,49.34c.26-.24.6-.41.61-.6.02-.46-.41-.32-.68-.34-.31-.02-.7-.03-.64.4.03.18.4.31.71.54ZM93.31,27.67c-.28-.76-.69-.97-1.23-.71-.12.06-.25.25-.24.38,0,.12.18.3.3.32.37.04.74.02,1.17.02ZM126.02,41.77h3.54c0-.06,0-.13,0-.19-1.21-.21-2.41.06-3.53.19ZM76.05,26.78c-.38-.03-.47.19-.48.52,0,.36.14.51.5.5.38,0,.48-.18.48-.52,0-.36-.15-.52-.51-.5ZM92.11,41.74v.18h2.8c0-.06,0-.12,0-.18h-2.79ZM3.92,33c.07-.01.14-.02.21-.03l-.23-2.34c-.08,0-.16.02-.24.03-.25.81.05,1.57.26,2.34ZM135.32,23.65c1.67-.14,3.34-.28,5.01-.42-1.7-.25-3.34.23-5.01.42ZM69.97,44.4c-.53,0-.98-.02-1.43.01-.1,0-.23.17-.26.28-.02.09.09.26.18.3.32.15,1.21-.17,1.51-.6ZM51.83,52.71c-.37-.4-1.33-.45-1.99-.14.64.41,1.26.35,1.99.14ZM83.95,27.74c.56.07.66-.16.69-.48.04-.37-.19-.39-.45-.4-.33-.01-.53.12-.47.45.03.18.19.35.23.42ZM52.99,30.59c0-.07,0-.15,0-.22-.69-.07-1.38-.19-2.03.22h2.04ZM10.94,28.15c-.45.13-.5.54-.58.89-.04.17.07.39.15.57.02.04.27.05.29,0,.09-.18.17-.38.18-.57.02-.26-.02-.52-.04-.89ZM33.05,46.5c1.12.76,2.37,1.12,3.68,1.3-1.23-.44-2.46-.87-3.68-1.3ZM137.77,51.37s-.01-.05-.02-.07h-4.09s0,.05,0,.07h4.11ZM113.57,44.58s0,.06,0,.09h4.78s0-.06,0-.09h-4.78ZM97.94,28.39s-.01-.05-.02-.08c-1.07-.12-2.14-.24-3.2-.36,0,.09-.01.18-.02.26,1.08.06,2.16.12,3.24.18ZM148.4,46.29c.3.37.58.37.91.15.28-.18.51-.35.18-.77-.35.2-.69.39-1.09.61ZM58.49,25.26c0-.09,0-.17.01-.26h-2.11s0,.09,0,.14c.7.04,1.4.08,2.11.12ZM120.5,44.55v.1h2.66s0-.07,0-.1h-2.66ZM84.14,23.37c.16-.42.31-.83.48-1.29h-.84c.13.46.24.87.36,1.29ZM114.54,47.05s0,.06,0,.08h2.76v-.08h-2.76ZM81.44,23.73h-3.37c1.23.31,2.3.33,3.37,0ZM128.7,44.63s.01-.07.02-.1h-3.5s0,.07,0,.1h3.48ZM98.93,41.11s0-.05,0-.07h-2.74s0,.05,0,.07h2.75ZM45.12,47.55s-.09,0-.13-.01c-.04.57-.08,1.15-.12,1.72.08,0,.17.01.25.02v-1.72ZM62.81,43.73c.26.41,1.2.38,1.91,0h-1.91ZM49.66,44.13c-.58-.34-1.32-.11-1.73.39.58-.13,1.15-.26,1.73-.39ZM76.03,23.65c.13-.56.22-.97.32-1.42h-.66c.11.46.2.86.33,1.42ZM10.6,31.65s.09-.02.14-.02c.04-.29.11-.59.11-.88,0-.13-.17-.25-.27-.38-.08.13-.25.28-.23.4.04.3.16.59.25.88ZM102.42,40.21c0,.06,0,.12.01.17.72-.05,1.44-.11,2.16-.16,0-.06,0-.12-.01-.18l-2.16.17ZM67.84,44.06s0-.08,0-.12h-1.84s0,.08,0,.12h1.84ZM83.45,48.86c.41.05.71.09,1.01.1.02,0,.05-.21.07-.33-.28-.02-.56-.04-.85-.05-.03,0-.07.08-.23.27ZM78.1,28.14s0-.05,0-.08h-3.09s0,.05,0,.08h3.09ZM92.94,28.03s0-.05,0-.07h-2.35s0,.05,0,.07h2.35ZM72.87,49.65c-.07-.02-.14-.03-.21-.05-.29.39-.26.83-.2,1.27.07.01.13.02.2.04.07-.42.14-.84.21-1.26ZM78.49,23.41s0,.06,0,.09h2.92s0-.06,0-.09h-2.92ZM66.56,47.87v-.1h-1.67s0,.07,0,.1h1.66ZM94.75,41.18s-.02-.04-.03-.06h-2.62s0,.04,0,.06h2.64ZM138.76,27.66s.02-.03.03-.04h-3.21s0,.03,0,.04h3.18ZM13.26,30.39c-.08,0-.16.02-.23.02-.12.38-.09.74.14,1.06.06,0,.12-.02.18-.03-.03-.35-.06-.7-.08-1.05ZM64.2,48s0-.04,0-.05h-2.93s0,.04,0,.05h2.93ZM88.3,17.61c0-.07,0-.15,0-.22-.39-.03-.78-.07-1.18-.1,0,.07-.01.15-.02.22.4.03.79.07,1.19.1ZM37.56,27.57s.07.09.1.14c.44-.29.88-.58,1.32-.88-.03-.05-.06-.09-.1-.14-.44.29-.88.59-1.33.88ZM54.57,24.99c0,.05,0,.1,0,.15h1.06c0-.05,0-.1,0-.15h-1.06ZM71.8,59.81c0-.08.01-.16.02-.23-.34-.02-.68-.05-1.03-.07,0,.08-.01.15-.02.23.34.03.68.05,1.02.08ZM129.05,47.08v-.04h-2.62s0,.03,0,.04h2.62ZM78.47,37.41c0,.08-.02.15-.03.23.38.02.76.05,1.14.07,0-.06.01-.12.02-.18-.37-.04-.75-.08-1.12-.12ZM50.1,50.54s0,.03,0,.05h1.68s0-.09,0-.14c-.55.03-1.11.06-1.66.1ZM89,50.03l.02.22c.27-.02.55-.03.82-.05-.01-.08-.03-.24-.03-.24-.27.01-.54.04-.81.07ZM11.27,31.4c.06,0,.12-.01.19-.02-.03-.34-.07-.68-.1-1.02-.07,0-.14.02-.21.02.04.34.08.68.13,1.02ZM.24,28.98s-.06-.01-.09-.02v1.95s.06,0,.09,0v-1.93ZM21.49,29.48c.05,0,.11,0,.16,0v-.78c-.05,0-.11,0-.16,0v.78ZM99.43,27.48s0-.06,0-.1c-.78-.05-1.56-.11-2.35-.16,0,.03,0,.06,0,.1.78.05,1.56.11,2.35.16ZM3.24,27.49c-.05,0-.1,0-.15,0-.03.62-.07,1.23-.1,1.85.03,0,.07,0,.1,0,.05-.62.1-1.23.15-1.85ZM139.89,31.3s0,.08-.01.12c.53.07,1.06.15,1.59.22,0-.05.01-.1.02-.16-.53-.06-1.06-.12-1.59-.19Z"/>
</svg>